<?xml version="1.0" encoding="UTF-8"?>
<svg width="269px" height="92px" viewBox="0 0 269 92" version="1.1" xmlns="http://www.w3.org/2000/svg" xmlns:xlink="http://www.w3.org/1999/xlink">
    <!-- Generator: Sketch 59.1 (86144) - https://sketch.com -->
    <title>Modal</title>
    <desc>Created with Sketch.</desc>
    <g id="Page-1" stroke="none" stroke-width="1" fill="none" fill-rule="evenodd">
        <g id="11" transform="translate(-948.000000, -365.000000)">
            <g id="Modal" transform="translate(948.828427, 365.000000)">
                <path d="M2,92 C0.8954305,92 -9.32587341e-13,91.1045695 -9.32587341e-13,90 C-9.32587341e-13,89.469567 0.210713681,88.9608592 0.585786438,88.5857864 L15.171,74 L15.1715729,2 C15.1715729,0.8954305 16.0670034,2.02906125e-16 17.1715729,0 L266.171573,0 C267.276142,-2.02906125e-16 268.171573,0.8954305 268.171573,2 L268.171573,90 C268.171573,91.1045695 267.276142,92 266.171573,92 L2,92 Z" id="Combined-Shape" fill="#FFFFFF"></path>
                <rect id="Rectangle" fill="#CDCDCA" x="92.1715729" y="20" width="1" height="28"></rect>
                <path d="M180.659573,65.952 C181.150242,65.952 181.584904,66.0453324 181.963573,66.232 C182.342241,66.4186676 182.664905,66.6879982 182.931573,67.04 C183.198241,67.3920018 183.400906,67.8133309 183.539573,68.304 C183.67824,68.7946691 183.747573,69.343997 183.747573,69.952 C183.747573,70.6240034 183.65424,71.2239974 183.467573,71.752 C183.280905,72.2800026 183.032908,72.7226649 182.723573,73.08 C182.414238,73.4373351 182.056908,73.711999 181.651573,73.904 C181.246238,74.096001 180.824908,74.192 180.387573,74.192 C180.046238,74.192 179.704908,74.1173341 179.363573,73.968 C179.022238,73.8186659 178.691574,73.6053347 178.371573,73.328 L178.419573,74.64 L178.419573,77.104 L176.579573,77.104 L176.579573,66.144 L178.099573,66.144 L178.227573,66.976 L178.291573,66.976 C178.622241,66.6986653 178.990238,66.4586677 179.395573,66.256 C179.800908,66.0533323 180.222237,65.952 180.659573,65.952 Z M93.8275729,65.952 C94.8089111,65.952 95.5422371,66.2426638 96.0275729,66.824 C96.5129086,67.4053362 96.7555729,68.2453278 96.7555729,69.344 L96.7555729,74 L95.2355729,74 L95.1075729,73.136 L95.0435729,73.136 C94.6915711,73.4346682 94.3155749,73.6853323 93.9155729,73.888 C93.5155709,74.0906677 93.0809086,74.192 92.6115729,74.192 C91.9182361,74.192 91.3582417,73.9813354 90.9315729,73.56 C90.5049041,73.1386646 90.2915729,72.5813368 90.2915729,71.888 C90.2915729,71.4719979 90.379572,71.101335 90.5555729,70.776 C90.7315738,70.450665 91.0089043,70.1706678 91.3875729,69.936 C91.7662414,69.7013322 92.2462366,69.5040008 92.8275729,69.344 C93.4089091,69.1839992 94.1049022,69.0613338 94.9155729,68.976 C94.9049062,68.7733323 94.8755731,68.5786676 94.8275729,68.392 C94.7795726,68.2053324 94.6995734,68.0400007 94.5875729,67.896 C94.4755723,67.7519993 94.3289071,67.6400004 94.1475729,67.56 C93.9662386,67.4799996 93.7422409,67.44 93.4755729,67.44 C93.091571,67.44 92.7155747,67.5146659 92.3475729,67.664 C91.979571,67.8133341 91.6195746,67.9946656 91.2675729,68.208 L90.5955729,66.976 C91.0329084,66.6986653 91.5235702,66.4586677 92.0675729,66.256 C92.6115756,66.0533323 93.1982364,65.952 93.8275729,65.952 Z M35.7635729,63.344 C36.3715759,63.344 36.9582367,63.4639988 37.5235729,63.704 C38.088909,63.9440012 38.5742375,64.2666646 38.9795729,64.672 L38.0355729,65.856 C37.6942378,65.5786653 37.3422414,65.3600008 36.9795729,65.2 C36.6169044,65.0399992 36.2115751,64.96 35.7635729,64.96 C35.262237,64.96 34.862241,65.0693322 34.5635729,65.288 C34.2649047,65.5066678 34.1155729,65.8079981 34.1155729,66.192 C34.1155729,66.3946677 34.1609058,66.5679993 34.2515729,66.712 C34.34224,66.8560007 34.4649054,66.9839994 34.6195729,67.096 C34.7742403,67.2080006 34.9529052,67.3093329 35.1555729,67.4 L35.4635729,67.534 L37.2035729,68.256 C37.5129078,68.3840006 37.7955716,68.5333325 38.0515729,68.704 C38.3075742,68.8746675 38.5289053,69.0719989 38.7155729,69.296 C38.9022405,69.5200011 39.0489057,69.7786652 39.1555729,70.072 C39.2622401,70.3653348 39.3155729,70.7039981 39.3155729,71.088 C39.3155729,71.5146688 39.2302404,71.9146648 39.0595729,72.288 C38.8889054,72.6613352 38.6409078,72.9893319 38.3155729,73.272 C37.9902379,73.5546681 37.5955752,73.7786658 37.1315729,73.944 C36.6675706,74.1093342 36.1422425,74.192 35.5555729,74.192 C34.8515694,74.192 34.1715762,74.058668 33.5155729,73.792 C32.8595696,73.525332 32.2809087,73.1466691 31.7795729,72.656 L32.8675729,71.392 C33.2409081,71.7440018 33.6675705,72.0293322 34.1475729,72.248 C34.6275753,72.4666678 35.1075705,72.576 35.5875729,72.576 C36.1849092,72.576 36.638238,72.4533346 36.9475729,72.208 C37.2569078,71.9626654 37.4115729,71.6373354 37.4115729,71.232 C37.4115729,71.0186656 37.3715733,70.8373341 37.2915729,70.688 C37.2115725,70.5386659 37.0995736,70.4080006 36.9555729,70.296 C36.8115722,70.1839994 36.6409072,70.0800005 36.4435729,69.984 C36.2462386,69.8879995 36.0302407,69.7920005 35.7955729,69.696 L34.3555729,69.072 C34.0995716,68.9653328 33.8462408,68.8320008 33.5955729,68.672 C33.344905,68.5119992 33.1182406,68.3200011 32.9155729,68.096 C32.7129052,67.8719989 32.5502402,67.6106682 32.4275729,67.312 C32.3049056,67.0133318 32.2435729,66.6720019 32.2435729,66.288 C32.2435729,65.8719979 32.331572,65.4853351 32.5075729,65.128 C32.6835738,64.7706649 32.926238,64.458668 33.2355729,64.192 C33.5449078,63.925332 33.9155707,63.7173341 34.3475729,63.568 C34.7795729,63.4186659 35.2515703,63.344 35.7635729,63.344 Z M44.1635729,65.952 C44.6969089,65.952 45.1662375,66.0426658 45.5715729,66.224 C45.9769082,66.4053342 46.3155715,66.6613317 46.5875729,66.992 C46.8595742,67.3226683 47.0649055,67.717331 47.2035729,68.176 C47.3422402,68.634669 47.4115729,69.1359973 47.4115729,69.68 C47.4115729,69.8613342 47.403573,70.0319992 47.3875729,70.192 L47.3615729,70.4080001 C47.3522396,70.472 47.3422396,70.5279998 47.3315729,70.576 L42.3395729,70.576 C42.4249066,71.2800035 42.6729042,71.8213314 43.0835729,72.2 C43.4942416,72.5786686 44.0195697,72.768 44.6595729,72.768 C45.0009079,72.768 45.3182381,72.7173338 45.6115729,72.616 C45.9049077,72.5146662 46.1955714,72.3733342 46.4835729,72.192 L47.1075729,73.344 C46.7342377,73.5893346 46.3182418,73.7919992 45.8595729,73.952 C45.4009039,74.1120008 44.9209087,74.192 44.4195729,74.192 C43.8755702,74.192 43.3689086,74.0986676 42.8995729,73.912 C42.4302372,73.7253324 42.0195746,73.4560018 41.6675729,73.104 C41.3155711,72.7519982 41.0409072,72.3226692 40.8435729,71.816 C40.6462386,71.3093308 40.5475729,70.7306699 40.5475729,70.08 C40.5475729,69.4399968 40.6489052,68.8640026 40.8515729,68.352 C41.0542406,67.8399974 41.3235712,67.4080018 41.6595729,67.056 C41.9955746,66.7039982 42.3822374,66.432001 42.8195729,66.24 C43.2569084,66.047999 43.7049039,65.952 44.1635729,65.952 Z M152.691573,64 L152.691573,66.144 L154.691573,66.144 L154.691573,67.6 L152.691573,67.6 L152.691573,71.344 C152.691573,72.2613379 153.059569,72.72 153.795573,72.72 C153.93424,72.72 154.075572,72.7040002 154.219573,72.672 C154.363574,72.6399998 154.494239,72.5973336 154.611573,72.544 L154.931573,73.904 C154.718238,73.978667 154.475574,74.045333 154.203573,74.104 C153.931572,74.162667 153.640908,74.192 153.331573,74.192 C152.872904,74.192 152.486241,74.1226674 152.171573,73.984 C151.856905,73.8453326 151.600907,73.6506679 151.403573,73.4 C151.206239,73.1493321 151.06224,72.8506684 150.971573,72.504 C150.880906,72.1573316 150.835573,71.7706688 150.835573,71.344 L150.835573,67.6 L149.715573,67.6 L149.715573,66.224 L150.931573,66.144 L151.155573,64 L152.691573,64 Z M215.379573,65.952 C215.912909,65.952 216.382238,66.0426658 216.787573,66.224 C217.192908,66.4053342 217.531572,66.6613317 217.803573,66.992 C218.075574,67.3226683 218.280906,67.717331 218.419573,68.176 C218.55824,68.634669 218.627573,69.1359973 218.627573,69.68 C218.627573,69.8613342 218.619573,70.0319992 218.603573,70.192 L218.577573,70.4080001 C218.56824,70.472 218.55824,70.5279998 218.547573,70.576 L213.555573,70.576 C213.640907,71.2800035 213.888904,71.8213314 214.299573,72.2 C214.710242,72.5786686 215.23557,72.768 215.875573,72.768 C216.216908,72.768 216.534238,72.7173338 216.827573,72.616 C217.120908,72.5146662 217.411571,72.3733342 217.699573,72.192 L218.323573,73.344 C217.950238,73.5893346 217.534242,73.7919992 217.075573,73.952 C216.616904,74.1120008 216.136909,74.192 215.635573,74.192 C215.09157,74.192 214.584909,74.0986676 214.115573,73.912 C213.646237,73.7253324 213.235575,73.4560018 212.883573,73.104 C212.531571,72.7519982 212.256907,72.3226692 212.059573,71.816 C211.862239,71.3093308 211.763573,70.7306699 211.763573,70.08 C211.763573,69.4399968 211.864905,68.8640026 212.067573,68.352 C212.270241,67.8399974 212.539571,67.4080018 212.875573,67.056 C213.211575,66.7039982 213.598237,66.432001 214.035573,66.24 C214.472908,66.047999 214.920904,65.952 215.379573,65.952 Z M132.835573,65.952 C133.326242,65.952 133.798237,66.0453324 134.251573,66.232 C134.704908,66.4186676 135.102238,66.6879982 135.443573,67.04 C135.784908,67.3920018 136.059572,67.8239974 136.267573,68.336 C136.475574,68.8480026 136.579573,69.4293301 136.579573,70.08 C136.579573,70.7306699 136.475574,71.3119974 136.267573,71.824 C136.059572,72.3360026 135.784908,72.7679982 135.443573,73.12 C135.102238,73.4720018 134.704908,73.7386658 134.251573,73.92 C133.798237,74.1013342 133.326242,74.192 132.835573,74.192 C132.344904,74.192 131.875575,74.1013342 131.427573,73.92 C130.979571,73.7386658 130.582241,73.4720018 130.235573,73.12 C129.888904,72.7679982 129.614241,72.3360026 129.411573,71.824 C129.208905,71.3119974 129.107573,70.7306699 129.107573,70.08 C129.107573,69.4293301 129.208905,68.8480026 129.411573,68.336 C129.614241,67.8239974 129.888904,67.3920018 130.235573,67.04 C130.582241,66.6879982 130.979571,66.4186676 131.427573,66.232 C131.875575,66.0453324 132.344904,65.952 132.835573,65.952 Z M111.891573,65.952 C112.382242,65.952 112.854237,66.0453324 113.307573,66.232 C113.760908,66.4186676 114.158238,66.6879982 114.499573,67.04 C114.840908,67.3920018 115.115572,67.8239974 115.323573,68.336 C115.531574,68.8480026 115.635573,69.4293301 115.635573,70.08 C115.635573,70.7306699 115.531574,71.3119974 115.323573,71.824 C115.115572,72.3360026 114.840908,72.7679982 114.499573,73.12 C114.158238,73.4720018 113.760908,73.7386658 113.307573,73.92 C112.854237,74.1013342 112.382242,74.192 111.891573,74.192 C111.400904,74.192 110.931575,74.1013342 110.483573,73.92 C110.035571,73.7386658 109.638241,73.4720018 109.291573,73.12 C108.944904,72.7679982 108.670241,72.3360026 108.467573,71.824 C108.264905,71.3119974 108.163573,70.7306699 108.163573,70.08 C108.163573,69.4293301 108.264905,68.8480026 108.467573,68.336 C108.670241,67.8239974 108.944904,67.3920018 109.291573,67.04 C109.638241,66.6879982 110.035571,66.4186676 110.483573,66.232 C110.931575,66.0453324 111.400904,65.952 111.891573,65.952 Z M100.835573,64 L100.835573,66.144 L102.835573,66.144 L102.835573,67.6 L100.835573,67.6 L100.835573,71.344 C100.835573,72.2613379 101.203569,72.72 101.939573,72.72 C102.07824,72.72 102.219572,72.7040002 102.363573,72.672 C102.507574,72.6399998 102.638239,72.5973336 102.755573,72.544 L103.075573,73.904 C102.862238,73.978667 102.619574,74.045333 102.347573,74.104 C102.075572,74.162667 101.784908,74.192 101.475573,74.192 C101.016904,74.192 100.630241,74.1226674 100.315573,73.984 C100.000905,73.8453326 99.7449072,73.6506679 99.5475729,73.4 C99.3502386,73.1493321 99.20624,72.8506684 99.1155729,72.504 C99.0249058,72.1573316 98.9795729,71.7706688 98.9795729,71.344 L98.9795729,67.6 L97.8595729,67.6 L97.8595729,66.224 L99.0755729,66.144 L99.2995729,64 L100.835573,64 Z M168.371573,65.952 C168.904909,65.952 169.374238,66.0426658 169.779573,66.224 C170.184908,66.4053342 170.523572,66.6613317 170.795573,66.992 C171.067574,67.3226683 171.272906,67.717331 171.411573,68.176 C171.55024,68.634669 171.619573,69.1359973 171.619573,69.68 C171.619573,69.8613342 171.611573,70.0319992 171.595573,70.192 L171.569573,70.4080001 C171.56024,70.472 171.55024,70.5279998 171.539573,70.576 L166.547573,70.576 C166.632907,71.2800035 166.880904,71.8213314 167.291573,72.2 C167.702242,72.5786686 168.22757,72.768 168.867573,72.768 C169.208908,72.768 169.526238,72.7173338 169.819573,72.616 C170.112908,72.5146662 170.403571,72.3733342 170.691573,72.192 L171.315573,73.344 C170.942238,73.5893346 170.526242,73.7919992 170.067573,73.952 C169.608904,74.1120008 169.128909,74.192 168.627573,74.192 C168.08357,74.192 167.576909,74.0986676 167.107573,73.912 C166.638237,73.7253324 166.227575,73.4560018 165.875573,73.104 C165.523571,72.7519982 165.248907,72.3226692 165.051573,71.816 C164.854239,71.3093308 164.755573,70.7306699 164.755573,70.08 C164.755573,69.4399968 164.856905,68.8640026 165.059573,68.352 C165.262241,67.8399974 165.531571,67.4080018 165.867573,67.056 C166.203575,66.7039982 166.590237,66.432001 167.027573,66.24 C167.464908,66.047999 167.912904,65.952 168.371573,65.952 Z M64.8195729,62.704 L64.8195729,74 L63.2995729,74 L63.1715729,73.152 L63.1075729,73.152 C62.8195714,73.4400014 62.4835748,73.6853323 62.0995729,73.888 C61.715571,74.0906677 61.3102417,74.192 60.8835729,74.192 C59.8915679,74.192 59.1049091,73.8320036 58.5235729,73.112 C57.9422366,72.3919964 57.6515729,71.3813398 57.6515729,70.08 C57.6515729,69.4399968 57.7449053,68.8640026 57.9315729,68.352 C58.1182405,67.8399974 58.366238,67.4080018 58.6755729,67.056 C58.9849078,66.704 59.3395709,66.432001 59.7395729,66.24 C60.1395749,66.047999 60.5529041,65.952 60.9795729,65.952 C61.4275751,65.952 61.806238,66.0293326 62.1155729,66.184 C62.4249078,66.3386674 62.734238,66.549332 63.0435729,66.816 L62.9795729,65.552 L62.9795729,62.704 L64.8195729,62.704 Z M86.8995729,65.952 C87.4115754,65.952 87.851571,66.0373325 88.2195729,66.208 C88.5875747,66.3786675 88.9155714,66.5866654 89.2035729,66.832 L88.3075729,68.032 C88.0942385,67.8506658 87.8835739,67.7093338 87.6755729,67.608 C87.4675718,67.5066662 87.2409074,67.456 86.9955729,67.456 C86.3555697,67.456 85.8382415,67.693331 85.4435729,68.168 C85.0489042,68.642669 84.8515729,69.279996 84.8515729,70.08 C84.8515729,70.8693373 85.0462376,71.501331 85.4355729,71.976 C85.8249082,72.450669 86.3289031,72.688 86.9475729,72.688 C87.2569078,72.688 87.5475715,72.621334 87.8195729,72.488 C88.0915742,72.354666 88.3395718,72.1973342 88.5635729,72.016 L89.3155729,73.232 C88.9422377,73.5520016 88.5342418,73.7919992 88.0915729,73.952 C87.648904,74.1120008 87.2035751,74.192 86.7555729,74.192 C86.2222369,74.192 85.7235752,74.1013342 85.2595729,73.92 C84.7955706,73.7386658 84.3929079,73.4720018 84.0515729,73.12 C83.7102378,72.7679982 83.4435738,72.3360026 83.2515729,71.824 C83.0595719,71.3119974 82.9635729,70.7306699 82.9635729,70.08 C82.9635729,69.4293301 83.0702385,68.8480026 83.2835729,68.336 C83.4969073,67.8239974 83.7849044,67.3920018 84.1475729,67.04 C84.5102414,66.6879982 84.9289038,66.4186676 85.4035729,66.232 C85.8782419,66.0453324 86.3769036,65.952 86.8995729,65.952 Z M197.747573,65.952 C198.238242,65.952 198.710237,66.0453324 199.163573,66.232 C199.616908,66.4186676 200.014238,66.6879982 200.355573,67.04 C200.696908,67.3920018 200.971572,67.8239974 201.179573,68.336 C201.387574,68.8480026 201.491573,69.4293301 201.491573,70.08 C201.491573,70.7306699 201.387574,71.3119974 201.179573,71.824 C200.971572,72.3360026 200.696908,72.7679982 200.355573,73.12 C200.014238,73.4720018 199.616908,73.7386658 199.163573,73.92 C198.710237,74.1013342 198.238242,74.192 197.747573,74.192 C197.256904,74.192 196.787575,74.1013342 196.339573,73.92 C195.891571,73.7386658 195.494241,73.4720018 195.147573,73.12 C194.800904,72.7679982 194.526241,72.3360026 194.323573,71.824 C194.120905,71.3119974 194.019573,70.7306699 194.019573,70.08 C194.019573,69.4293301 194.120905,68.8480026 194.323573,68.336 C194.526241,67.8239974 194.800904,67.3920018 195.147573,67.04 C195.494241,66.6879982 195.891571,66.4186676 196.339573,66.232 C196.787575,66.0453324 197.256904,65.952 197.747573,65.952 Z M72.1955729,62.704 L72.1955729,72.08 C72.1955729,72.3040011 72.2382391,72.4613329 72.3235729,72.552 C72.4089066,72.6426671 72.4995724,72.688 72.5955729,72.688 L72.7155729,72.688 C72.7529064,72.688 72.8089058,72.6773334 72.8835729,72.656 L73.1235729,74.032 C72.8782383,74.1386672 72.5529082,74.192 72.1475729,74.192 C71.4862362,74.192 71.0222409,73.9946686 70.7555729,73.6 C70.4889049,73.2053314 70.3555729,72.6666701 70.3555729,71.984 L70.3555729,62.704 L72.1955729,62.704 Z M77.9075729,65.952 C78.398242,65.952 78.8702373,66.0453324 79.3235729,66.232 C79.7769085,66.4186676 80.1742378,66.6879982 80.5155729,67.04 C80.8569079,67.3920018 81.1315718,67.8239974 81.3395729,68.336 C81.5475739,68.8480026 81.6515729,69.4293301 81.6515729,70.08 C81.6515729,70.7306699 81.5475739,71.3119974 81.3395729,71.824 C81.1315718,72.3360026 80.8569079,72.7679982 80.5155729,73.12 C80.1742378,73.4720018 79.7769085,73.7386658 79.3235729,73.92 C78.8702373,74.1013342 78.398242,74.192 77.9075729,74.192 C77.4169038,74.192 76.9475751,74.1013342 76.4995729,73.92 C76.0515706,73.7386658 75.6542413,73.4720018 75.3075729,73.12 C74.9609045,72.7679982 74.6862406,72.3360026 74.4835729,71.824 C74.2809052,71.3119974 74.1795729,70.7306699 74.1795729,70.08 C74.1795729,69.4293301 74.2809052,68.8480026 74.4835729,68.336 C74.6862406,67.8239974 74.9609045,67.3920018 75.3075729,67.04 C75.6542413,66.6879982 76.0515706,66.4186676 76.4995729,66.232 C76.9475751,66.0453324 77.4169038,65.952 77.9075729,65.952 Z M53.4595729,65.952 C54.3022438,65.952 54.915571,66.2213306 55.2995729,66.76 C55.6835748,67.2986694 55.8755729,68.0693283 55.8755729,69.072 L55.8755729,74 L54.0355729,74 L54.0355729,69.312 C54.0355729,68.6613301 53.9395738,68.202668 53.7475729,67.936 C53.5555719,67.669332 53.2409084,67.536 52.8035729,67.536 C52.4622378,67.536 52.1609075,67.6186658 51.8995729,67.784 C51.6382382,67.9493342 51.3422412,68.1919984 51.0115729,68.512 L51.0115729,74 L49.1715729,74 L49.1715729,66.144 L50.6915729,66.144 L50.8195729,67.2 L50.8835729,67.2 C51.2355746,66.858665 51.6169042,66.5653346 52.0275729,66.32 C52.4382416,66.0746654 52.9155702,65.952 53.4595729,65.952 Z M158.179573,62.704 L158.179573,65.616 L158.115573,67.136 C158.446241,66.8266651 158.811571,66.5520012 159.211573,66.312 C159.611575,66.0719988 160.08357,65.952 160.627573,65.952 C161.470244,65.952 162.083571,66.2213306 162.467573,66.76 C162.851575,67.2986694 163.043573,68.0693283 163.043573,69.072 L163.043573,74 L161.203573,74 L161.203573,69.312 C161.203573,68.6613301 161.107574,68.202668 160.915573,67.936 C160.723572,67.669332 160.408908,67.536 159.971573,67.536 C159.630238,67.536 159.328908,67.6186658 159.067573,67.784 C158.806238,67.9493342 158.510241,68.1919984 158.179573,68.512 L158.179573,74 L156.339573,74 L156.339573,62.704 L158.179573,62.704 Z M142.691573,65.952 C143.534244,65.952 144.147571,66.2213306 144.531573,66.76 C144.915575,67.2986694 145.107573,68.0693283 145.107573,69.072 L145.107573,74 L143.267573,74 L143.267573,69.312 C143.267573,68.6613301 143.171574,68.202668 142.979573,67.936 C142.787572,67.669332 142.472908,67.536 142.035573,67.536 C141.694238,67.536 141.392908,67.6186658 141.131573,67.784 C140.870238,67.9493342 140.574241,68.1919984 140.243573,68.512 L140.243573,74 L138.403573,74 L138.403573,66.144 L139.923573,66.144 L140.051573,67.2 L140.115573,67.2 C140.467575,66.858665 140.848904,66.5653346 141.259573,66.32 C141.670242,66.0746654 142.14757,65.952 142.691573,65.952 Z M106.323573,66.144 L106.323573,74 L104.483573,74 L104.483573,66.144 L106.323573,66.144 Z M187.443573,62.704 L187.443573,65.616 L187.379573,67.136 C187.710241,66.8266651 188.075571,66.5520012 188.475573,66.312 C188.875575,66.0719988 189.34757,65.952 189.891573,65.952 C190.734244,65.952 191.347571,66.2213306 191.731573,66.76 C192.115575,67.2986694 192.307573,68.0693283 192.307573,69.072 L192.307573,74 L190.467573,74 L190.467573,69.312 C190.467573,68.6613301 190.371574,68.202668 190.179573,67.936 C189.987572,67.669332 189.672908,67.536 189.235573,67.536 C188.894238,67.536 188.592908,67.6186658 188.331573,67.784 C188.070238,67.9493342 187.774241,68.1919984 187.443573,68.512 L187.443573,74 L185.603573,74 L185.603573,62.704 L187.443573,62.704 Z M121.747573,65.952 C122.590244,65.952 123.203571,66.2213306 123.587573,66.76 C123.971575,67.2986694 124.163573,68.0693283 124.163573,69.072 L124.163573,74 L122.323573,74 L122.323573,69.312 C122.323573,68.6613301 122.227574,68.202668 122.035573,67.936 C121.843572,67.669332 121.528908,67.536 121.091573,67.536 C120.750238,67.536 120.448908,67.6186658 120.187573,67.784 C119.926238,67.9493342 119.630241,68.1919984 119.299573,68.512 L119.299573,74 L117.459573,74 L117.459573,66.144 L118.979573,66.144 L119.107573,67.2 L119.171573,67.2 C119.523575,66.858665 119.904904,66.5653346 120.315573,66.32 C120.726242,66.0746654 121.20357,65.952 121.747573,65.952 Z M207.603573,65.952 C208.446244,65.952 209.059571,66.2213306 209.443573,66.76 C209.827575,67.2986694 210.019573,68.0693283 210.019573,69.072 L210.019573,74 L208.179573,74 L208.179573,69.312 C208.179573,68.6613301 208.083574,68.202668 207.891573,67.936 C207.699572,67.669332 207.384908,67.536 206.947573,67.536 C206.606238,67.536 206.304908,67.6186658 206.043573,67.784 C205.782238,67.9493342 205.486241,68.1919984 205.155573,68.512 L205.155573,74 L203.315573,74 L203.315573,66.144 L204.835573,66.144 L204.963573,67.2 L205.027573,67.2 C205.379575,66.858665 205.760904,66.5653346 206.171573,66.32 C206.582242,66.0746654 207.05957,65.952 207.603573,65.952 Z M94.9155729,70.128 C94.3822369,70.1920003 93.9342414,70.2773328 93.5715729,70.384 C93.2089044,70.4906672 92.915574,70.610666 92.6915729,70.744 C92.4675718,70.877334 92.3075734,71.0293325 92.2115729,71.2 C92.1155724,71.3706675 92.0675729,71.551999 92.0675729,71.744 C92.0675729,72.0960018 92.1742385,72.3519992 92.3875729,72.512 C92.6009073,72.6720008 92.8729046,72.752 93.2035729,72.752 C93.5235745,72.752 93.8142382,72.6773341 94.0755729,72.528 C94.3369075,72.3786659 94.6169047,72.1653347 94.9155729,71.888 L94.9155729,70.128 Z M132.835573,67.456 C132.25957,67.456 131.808908,67.693331 131.483573,68.168 C131.158238,68.642669 130.995573,69.279996 130.995573,70.08 C130.995573,70.8693373 131.158238,71.501331 131.483573,71.976 C131.808908,72.450669 132.25957,72.688 132.835573,72.688 C133.411576,72.688 133.864905,72.450669 134.195573,71.976 C134.526241,71.501331 134.691573,70.8693373 134.691573,70.08 C134.691573,69.279996 134.526241,68.642669 134.195573,68.168 C133.864905,67.693331 133.411576,67.456 132.835573,67.456 Z M77.9075729,67.456 C77.33157,67.456 76.8809078,67.693331 76.5555729,68.168 C76.2302379,68.642669 76.0675729,69.279996 76.0675729,70.08 C76.0675729,70.8693373 76.2302379,71.501331 76.5555729,71.976 C76.8809078,72.450669 77.33157,72.688 77.9075729,72.688 C78.4835758,72.688 78.9369046,72.450669 79.2675729,71.976 C79.5982412,71.501331 79.7635729,70.8693373 79.7635729,70.08 C79.7635729,69.279996 79.5982412,68.642669 79.2675729,68.168 C78.9369046,67.693331 78.4835758,67.456 77.9075729,67.456 Z M197.747573,67.456 C197.17157,67.456 196.720908,67.693331 196.395573,68.168 C196.070238,68.642669 195.907573,69.279996 195.907573,70.08 C195.907573,70.8693373 196.070238,71.501331 196.395573,71.976 C196.720908,72.450669 197.17157,72.688 197.747573,72.688 C198.323576,72.688 198.776905,72.450669 199.107573,71.976 C199.438241,71.501331 199.603573,70.8693373 199.603573,70.08 C199.603573,69.279996 199.438241,68.642669 199.107573,68.168 C198.776905,67.693331 198.323576,67.456 197.747573,67.456 Z M111.891573,67.456 C111.31557,67.456 110.864908,67.693331 110.539573,68.168 C110.214238,68.642669 110.051573,69.279996 110.051573,70.08 C110.051573,70.8693373 110.214238,71.501331 110.539573,71.976 C110.864908,72.450669 111.31557,72.688 111.891573,72.688 C112.467576,72.688 112.920905,72.450669 113.251573,71.976 C113.582241,71.501331 113.747573,70.8693373 113.747573,70.08 C113.747573,69.279996 113.582241,68.642669 113.251573,68.168 C112.920905,67.693331 112.467576,67.456 111.891573,67.456 Z M180.147573,67.472 C179.592903,67.472 179.016909,67.7653304 178.419573,68.352 L178.419573,72.016 C178.707574,72.2613346 178.984905,72.4319995 179.251573,72.528 C179.518241,72.6240005 179.768905,72.672 180.003573,72.672 C180.526242,72.672 180.963571,72.4453356 181.315573,71.992 C181.667575,71.5386644 181.843573,70.8640045 181.843573,69.968 C181.843573,69.1786627 181.710241,68.5653355 181.443573,68.128 C181.176905,67.6906645 180.744909,67.472 180.147573,67.472 Z M61.3795729,67.472 C60.8675703,67.472 60.4355746,67.6959978 60.0835729,68.144 C59.7315711,68.5920022 59.5555729,69.2319958 59.5555729,70.064 C59.5555729,70.9173376 59.7075714,71.5653311 60.0115729,72.008 C60.3155744,72.4506689 60.75557,72.672 61.3315729,72.672 C61.9182425,72.672 62.4675703,72.3786696 62.9795729,71.792 L62.9795729,68.128 C62.7022382,67.8826654 62.4329075,67.7120005 62.1715729,67.616 C61.9102382,67.5199995 61.6462409,67.472 61.3795729,67.472 Z M215.427573,67.376 C214.958237,67.376 214.547575,67.5413317 214.195573,67.872 C213.843571,68.2026683 213.624907,68.6879968 213.539573,69.328 L213.539573,69.328 L217.027573,69.328 C217.027573,68.719997 216.896908,68.2426684 216.635573,67.896 C216.374238,67.5493316 215.971576,67.376 215.427573,67.376 Z M168.419573,67.376 C167.950237,67.376 167.539575,67.5413317 167.187573,67.872 C166.835571,68.2026683 166.616907,68.6879968 166.531573,69.328 L170.019573,69.328 C170.019573,68.719997 169.888908,68.2426684 169.627573,67.896 C169.366238,67.5493316 168.963576,67.376 168.419573,67.376 Z M44.2115729,67.376 C43.7422372,67.376 43.3315746,67.5413317 42.9795729,67.872 C42.6275711,68.2026683 42.4089066,68.6879968 42.3235729,69.328 L45.8115729,69.328 C45.8115729,68.719997 45.6809075,68.2426684 45.4195729,67.896 C45.1582382,67.5493316 44.7555756,67.376 44.2115729,67.376 Z M105.411573,62.672 C105.742241,62.672 106.014238,62.7706657 106.227573,62.968 C106.440907,63.1653343 106.547573,63.4186651 106.547573,63.728 C106.547573,64.0373349 106.440907,64.287999 106.227573,64.48 C106.014238,64.672 105.742241,64.768 105.411573,64.768 C105.080905,64.768 104.808907,64.672 104.595573,64.48 C104.382238,64.287999 104.275573,64.0373349 104.275573,63.728 C104.275573,63.4186651 104.382238,63.1653343 104.595573,62.968 C104.808907,62.7706657 105.080905,62.672 105.411573,62.672 Z" id="Combined-Shape" fill="#0079FF" fill-rule="nonzero"></path>
                <path d="M178.835573,44.176 C179.176908,44.176 179.446239,44.3146653 179.643573,44.592 C179.840907,44.8693347 179.939573,45.2479976 179.939573,45.728 C179.939573,46.4213368 179.752908,47.0239974 179.379573,47.536 C179.006238,48.0480026 178.494243,48.4426653 177.843573,48.72 L177.523573,47.952 C177.982242,47.7493323 178.339572,47.4800017 178.595573,47.144 C178.851574,46.8079983 178.97424,46.4266688 178.963573,46 C178.931573,46.0106667 178.87824,46.016 178.803573,46.016 C178.547572,46.016 178.32624,45.9386674 178.139573,45.784 C177.952905,45.6293326 177.859573,45.4026682 177.859573,45.104 C177.859573,44.8159986 177.955572,44.5893342 178.147573,44.424 C178.339574,44.2586658 178.568905,44.176 178.835573,44.176 Z M148.691573,35.6 C149.139575,35.6 149.550238,35.6586661 149.923573,35.776 C150.296908,35.8933339 150.619572,36.0613322 150.891573,36.28 C151.163574,36.4986678 151.374239,36.7679984 151.523573,37.088 C151.672907,37.4080016 151.747573,37.7759979 151.747573,38.192 C151.747573,38.8106698 151.576908,39.3173314 151.235573,39.712 C150.894238,40.1066686 150.446242,40.4106656 149.891573,40.624 L149.891573,40.688 C150.200908,40.762667 150.488905,40.8719993 150.755573,41.016 C151.022241,41.1600007 151.256905,41.3413322 151.459573,41.56 C151.662241,41.7786678 151.819572,42.0319986 151.931573,42.32 C152.043573,42.6080014 152.099573,42.9279982 152.099573,43.28 C152.099573,43.7280022 152.011574,44.1333315 151.835573,44.496 C151.659572,44.8586685 151.419574,45.1653321 151.115573,45.416 C150.811571,45.6666679 150.456908,45.858666 150.051573,45.992 C149.646238,46.125334 149.208909,46.192 148.739573,46.192 C148.334238,46.192 147.963575,46.1520004 147.627573,46.072 C147.291571,45.9919996 146.984908,45.885334 146.707573,45.752 C146.430238,45.618666 146.182241,45.4666675 145.963573,45.296 C145.744905,45.1253325 145.55024,44.944001 145.379573,44.752 L146.051573,43.888 C146.360908,44.2080016 146.720904,44.4906654 147.131573,44.736 C147.542242,44.9813346 148.05157,45.104 148.659573,45.104 C149.278243,45.104 149.784904,44.9360017 150.179573,44.6 C150.574242,44.2639983 150.771573,43.8080029 150.771573,43.232 C150.771573,42.9333318 150.715573,42.6586679 150.603573,42.408 C150.491572,42.1573321 150.307574,41.9413342 150.051573,41.76 C149.795572,41.5786658 149.459575,41.4400005 149.043573,41.344 C148.627571,41.2479995 148.115576,41.2 147.507573,41.2 L147.507573,40.192 C148.051576,40.192 148.507571,40.1440005 148.875573,40.048 C149.243575,39.9519995 149.542238,39.8186675 149.771573,39.648 C150.000907,39.4773325 150.163572,39.2746678 150.259573,39.04 C150.355573,38.8053322 150.403573,38.554668 150.403573,38.288 C150.403573,37.7866642 150.246241,37.3920014 149.931573,37.104 C149.616905,36.8159986 149.187576,36.672 148.643573,36.672 C148.216904,36.672 147.824908,36.767999 147.467573,36.96 C147.110238,37.152001 146.776908,37.4026651 146.467573,37.712 L145.763573,36.88 C146.158242,36.5066648 146.592904,36.2000012 147.067573,35.96 C147.542242,35.7199988 148.08357,35.6 148.691573,35.6 Z M167.539573,35.792 L167.539573,36.928 L163.587573,36.928 L163.315573,39.952 C163.560907,39.8239994 163.806238,39.722667 164.051573,39.648 C164.296907,39.573333 164.574238,39.536 164.883573,39.536 C165.320908,39.536 165.731571,39.5999994 166.115573,39.728 C166.499575,39.8560006 166.835571,40.0506654 167.123573,40.312 C167.411574,40.5733346 167.638239,40.903998 167.803573,41.304 C167.968907,41.704002 168.051573,42.1813306 168.051573,42.736 C168.051573,43.2906694 167.955574,43.7813312 167.763573,44.208 C167.571572,44.6346688 167.315574,44.9946652 166.995573,45.288 C166.675571,45.5813348 166.310242,45.8053326 165.899573,45.96 C165.488904,46.1146674 165.059575,46.192 164.611573,46.192 C164.206238,46.192 163.835575,46.1520004 163.499573,46.072 C163.163571,45.9919996 162.859574,45.8880006 162.587573,45.76 C162.315572,45.6319994 162.070241,45.4853342 161.851573,45.32 C161.632905,45.1546658 161.43824,44.9813342 161.267573,44.8 L161.907573,43.936 C162.206241,44.2453349 162.560904,44.5173322 162.971573,44.752 C163.382242,44.9866678 163.886237,45.104 164.483573,45.104 C164.792908,45.104 165.083572,45.0480006 165.355573,44.936 C165.627574,44.8239994 165.864905,44.6666677 166.067573,44.464 C166.270241,44.2613323 166.430239,44.0160014 166.547573,43.728 C166.664907,43.4399986 166.723573,43.1200018 166.723573,42.768 C166.723573,42.0639965 166.526242,41.5146686 166.131573,41.12 C165.736904,40.7253314 165.20891,40.528 164.547573,40.528 C164.195571,40.528 163.894241,40.5813328 163.643573,40.688 C163.392905,40.7946672 163.112908,40.9493323 162.803573,41.152 L162.099573,40.704 L162.435573,35.792 L167.539573,35.792 Z M159.587573,35.792 L159.587573,36.928 L155.635573,36.928 L155.363573,39.952 C155.608907,39.8239994 155.854238,39.722667 156.099573,39.648 C156.344907,39.573333 156.622238,39.536 156.931573,39.536 C157.368908,39.536 157.779571,39.5999994 158.163573,39.728 C158.547575,39.8560006 158.883571,40.0506654 159.171573,40.312 C159.459574,40.5733346 159.686239,40.903998 159.851573,41.304 C160.016907,41.704002 160.099573,42.1813306 160.099573,42.736 C160.099573,43.2906694 160.003574,43.7813312 159.811573,44.208 C159.619572,44.6346688 159.363574,44.9946652 159.043573,45.288 C158.723571,45.5813348 158.358242,45.8053326 157.947573,45.96 C157.536904,46.1146674 157.107575,46.192 156.659573,46.192 C156.254238,46.192 155.883575,46.1520004 155.547573,46.072 C155.211571,45.9919996 154.907574,45.8880006 154.635573,45.76 C154.363572,45.6319994 154.118241,45.4853342 153.899573,45.32 C153.680905,45.1546658 153.48624,44.9813342 153.315573,44.8 L153.955573,43.936 C154.254241,44.2453349 154.608904,44.5173322 155.019573,44.752 C155.430242,44.9866678 155.934237,45.104 156.531573,45.104 C156.840908,45.104 157.131572,45.0480006 157.403573,44.936 C157.675574,44.8239994 157.912905,44.6666677 158.115573,44.464 C158.318241,44.2613323 158.478239,44.0160014 158.595573,43.728 C158.712907,43.4399986 158.771573,43.1200018 158.771573,42.768 C158.771573,42.0639965 158.574242,41.5146686 158.179573,41.12 C157.784904,40.7253314 157.25691,40.528 156.595573,40.528 C156.243571,40.528 155.942241,40.5813328 155.691573,40.688 C155.440905,40.7946672 155.160908,40.9493323 154.851573,41.152 L154.147573,40.704 L154.483573,35.792 L159.587573,35.792 Z M141.059573,35.6 C141.507575,35.6 141.907571,35.666666 142.259573,35.8 C142.611575,35.933334 142.912905,36.1199988 143.163573,36.36 C143.414241,36.6 143.606239,36.8879983 143.739573,37.224 C143.872907,37.5600017 143.939573,37.9253314 143.939573,38.32 C143.939573,38.586668 143.89424,38.8426654 143.803573,39.088 C143.712906,39.3333346 143.600907,39.5626656 143.467573,39.776 C143.334239,39.9893344 143.184907,40.1813325 143.019573,40.352 C142.854239,40.5226675 142.691574,40.6666661 142.531573,40.784 L142.531573,40.848 C142.755574,40.9760006 142.974238,41.1226658 143.187573,41.288 C143.400907,41.4533342 143.590239,41.639999 143.755573,41.848 C143.920907,42.056001 144.054239,42.293332 144.155573,42.56 C144.256907,42.826668 144.307573,43.130665 144.307573,43.472 C144.307573,43.8560019 144.227574,44.2133317 144.067573,44.544 C143.907572,44.8746683 143.683574,45.1626654 143.395573,45.408 C143.107571,45.6533346 142.760908,45.8453326 142.355573,45.984 C141.950238,46.1226674 141.502242,46.192 141.011573,46.192 C140.53157,46.192 140.086242,46.1226674 139.675573,45.984 C139.264904,45.8453326 138.912908,45.6506679 138.619573,45.4 C138.326238,45.1493321 138.09424,44.853335 137.923573,44.512 C137.752905,44.170665 137.667573,43.7973354 137.667573,43.392 C137.667573,43.0613317 137.723572,42.7546681 137.835573,42.472 C137.947573,42.1893319 138.091572,41.9333345 138.267573,41.704 C138.443574,41.4746655 138.646238,41.2720009 138.875573,41.096 C139.104907,40.9199991 139.342238,40.7680006 139.587573,40.64 L139.587573,40.576 C139.214238,40.309332 138.883574,39.9866686 138.595573,39.608 C138.307571,39.2293314 138.163573,38.7680027 138.163573,38.224 C138.163573,37.8293314 138.238239,37.4720016 138.387573,37.152 C138.536907,36.8319984 138.739572,36.5573345 138.995573,36.328 C139.251574,36.0986655 139.555571,35.9200006 139.907573,35.792 C140.259575,35.6639994 140.643571,35.6 141.059573,35.6 Z M239.699573,35.6 C240.147575,35.6 240.547571,35.666666 240.899573,35.8 C241.251575,35.933334 241.552905,36.1199988 241.803573,36.36 C242.054241,36.6 242.246239,36.8879983 242.379573,37.224 C242.512907,37.5600017 242.579573,37.9253314 242.579573,38.32 C242.579573,38.586668 242.53424,38.8426654 242.443573,39.088 C242.352906,39.3333346 242.240907,39.5626656 242.107573,39.776 C241.974239,39.9893344 241.824907,40.1813325 241.659573,40.352 C241.494239,40.5226675 241.331574,40.6666661 241.171573,40.784 L241.171573,40.848 C241.395574,40.9760006 241.614238,41.1226658 241.827573,41.288 C242.040907,41.4533342 242.230239,41.639999 242.395573,41.848 C242.560907,42.056001 242.694239,42.293332 242.795573,42.56 C242.896907,42.826668 242.947573,43.130665 242.947573,43.472 C242.947573,43.8560019 242.867574,44.2133317 242.707573,44.544 C242.547572,44.8746683 242.323574,45.1626654 242.035573,45.408 C241.747571,45.6533346 241.400908,45.8453326 240.995573,45.984 C240.590238,46.1226674 240.142242,46.192 239.651573,46.192 C239.17157,46.192 238.726242,46.1226674 238.315573,45.984 C237.904904,45.8453326 237.552908,45.6506679 237.259573,45.4 C236.966238,45.1493321 236.73424,44.853335 236.563573,44.512 C236.392905,44.170665 236.307573,43.7973354 236.307573,43.392 C236.307573,43.0613317 236.363572,42.7546681 236.475573,42.472 C236.587573,42.1893319 236.731572,41.9333345 236.907573,41.704 C237.083574,41.4746655 237.286238,41.2720009 237.515573,41.096 C237.744907,40.9199991 237.982238,40.7680006 238.227573,40.64 L238.227573,40.576 C237.854238,40.309332 237.523574,39.9866686 237.235573,39.608 C236.947571,39.2293314 236.803573,38.7680027 236.803573,38.224 C236.803573,37.8293314 236.878239,37.4720016 237.027573,37.152 C237.176907,36.8319984 237.379572,36.5573345 237.635573,36.328 C237.891574,36.0986655 238.195571,35.9200006 238.547573,35.792 C238.899575,35.6639994 239.283571,35.6 239.699573,35.6 Z M175.491573,35.792 L175.491573,36.928 L171.539573,36.928 L171.267573,39.952 C171.512907,39.8239994 171.758238,39.722667 172.003573,39.648 C172.248907,39.573333 172.526238,39.536 172.835573,39.536 C173.272908,39.536 173.683571,39.5999994 174.067573,39.728 C174.451575,39.8560006 174.787571,40.0506654 175.075573,40.312 C175.363574,40.5733346 175.590239,40.903998 175.755573,41.304 C175.920907,41.704002 176.003573,42.1813306 176.003573,42.736 C176.003573,43.2906694 175.907574,43.7813312 175.715573,44.208 C175.523572,44.6346688 175.267574,44.9946652 174.947573,45.288 C174.627571,45.5813348 174.262242,45.8053326 173.851573,45.96 C173.440904,46.1146674 173.011575,46.192 172.563573,46.192 C172.158238,46.192 171.787575,46.1520004 171.451573,46.072 C171.115571,45.9919996 170.811574,45.8880006 170.539573,45.76 C170.267572,45.6319994 170.022241,45.4853342 169.803573,45.32 C169.584905,45.1546658 169.39024,44.9813342 169.219573,44.8 L169.859573,43.936 C170.158241,44.2453349 170.512904,44.5173322 170.923573,44.752 C171.334242,44.9866678 171.838237,45.104 172.435573,45.104 C172.744908,45.104 173.035572,45.0480006 173.307573,44.936 C173.579574,44.8239994 173.816905,44.6666677 174.019573,44.464 C174.222241,44.2613323 174.382239,44.0160014 174.499573,43.728 C174.616907,43.4399986 174.675573,43.1200018 174.675573,42.768 C174.675573,42.0639965 174.478242,41.5146686 174.083573,41.12 C173.688904,40.7253314 173.16091,40.528 172.499573,40.528 C172.147571,40.528 171.846241,40.5813328 171.595573,40.688 C171.344905,40.7946672 171.064908,40.9493323 170.755573,41.152 L170.051573,40.704 L170.387573,35.792 L175.491573,35.792 Z M133.043573,35.6 C134.067578,35.6 134.86757,36.0479955 135.443573,36.944 C136.019576,37.8400045 136.307573,39.1466581 136.307573,40.864 C136.307573,42.5813419 136.019576,43.8986621 135.443573,44.816 C134.86757,45.7333379 134.067578,46.192 133.043573,46.192 C132.008901,46.192 131.203576,45.7333379 130.627573,44.816 C130.05157,43.8986621 129.763573,42.5813419 129.763573,40.864 C129.763573,39.1466581 130.05157,37.8400045 130.627573,36.944 C131.203576,36.0479955 132.008901,35.6 133.043573,35.6 Z M208.499573,35.6 C209.054242,35.6 209.531571,35.703999 209.931573,35.912 C210.331575,36.120001 210.675571,36.3786651 210.963573,36.688 L210.227573,37.504 C210.014238,37.2586654 209.760908,37.0640007 209.467573,36.92 C209.174238,36.7759993 208.867574,36.704 208.547573,36.704 C208.195571,36.704 207.859574,36.7786659 207.539573,36.928 C207.219571,37.0773341 206.936907,37.322665 206.691573,37.664 C206.446238,38.005335 206.248907,38.4506639 206.099573,39 C205.950239,39.5493361 205.87024,40.2293293 205.859573,41.04 C206.179574,40.6453314 206.552904,40.3333345 206.979573,40.104 C207.406242,39.8746655 207.827571,39.76 208.243573,39.76 C209.128911,39.76 209.83557,40.0213307 210.363573,40.544 C210.891576,41.0666693 211.155573,41.8559947 211.155573,42.912 C211.155573,43.4026691 211.075574,43.847998 210.915573,44.248 C210.755572,44.648002 210.536908,44.9919986 210.259573,45.28 C209.982238,45.5680014 209.662241,45.7919992 209.299573,45.952 C208.936904,46.1120008 208.547575,46.192 208.131573,46.192 C207.630237,46.192 207.166242,46.0906677 206.739573,45.888 C206.312904,45.6853323 205.942241,45.3786687 205.627573,44.968 C205.312905,44.5573313 205.064907,44.0453364 204.883573,43.432 C204.702239,42.8186636 204.611573,42.1013374 204.611573,41.28 C204.611573,40.2559949 204.718238,39.3840036 204.931573,38.664 C205.144907,37.9439964 205.432904,37.3573356 205.795573,36.904 C206.158241,36.4506644 206.571571,36.120001 207.035573,35.912 C207.499575,35.703999 207.98757,35.6 208.499573,35.6 Z M127.075573,44.176 C127.331574,44.176 127.552905,44.2693324 127.739573,44.456 C127.92624,44.6426676 128.019573,44.8906651 128.019573,45.2 C128.019573,45.4880014 127.92624,45.7253324 127.739573,45.912 C127.552905,46.0986676 127.331574,46.192 127.075573,46.192 C126.808905,46.192 126.58224,46.0986676 126.395573,45.912 C126.208905,45.7253324 126.115573,45.4880014 126.115573,45.2 C126.115573,44.8906651 126.208905,44.6426676 126.395573,44.456 C126.58224,44.2693324 126.808905,44.176 127.075573,44.176 Z M115.843573,35.792 L115.843573,36.928 L111.891573,36.928 L111.619573,39.952 C111.864907,39.8239994 112.110238,39.722667 112.355573,39.648 C112.600907,39.573333 112.878238,39.536 113.187573,39.536 C113.624908,39.536 114.035571,39.5999994 114.419573,39.728 C114.803575,39.8560006 115.139571,40.0506654 115.427573,40.312 C115.715574,40.5733346 115.942239,40.903998 116.107573,41.304 C116.272907,41.704002 116.355573,42.1813306 116.355573,42.736 C116.355573,43.2906694 116.259574,43.7813312 116.067573,44.208 C115.875572,44.6346688 115.619574,44.9946652 115.299573,45.288 C114.979571,45.5813348 114.614242,45.8053326 114.203573,45.96 C113.792904,46.1146674 113.363575,46.192 112.915573,46.192 C112.510238,46.192 112.139575,46.1520004 111.803573,46.072 C111.467571,45.9919996 111.163574,45.8880006 110.891573,45.76 C110.619572,45.6319994 110.374241,45.4853342 110.155573,45.32 C109.936905,45.1546658 109.74224,44.9813342 109.571573,44.8 L110.211573,43.936 C110.510241,44.2453349 110.864904,44.5173322 111.275573,44.752 C111.686242,44.9866678 112.190237,45.104 112.787573,45.104 C113.096908,45.104 113.387572,45.0480006 113.659573,44.936 C113.931574,44.8239994 114.168905,44.6666677 114.371573,44.464 C114.574241,44.2613323 114.734239,44.0160014 114.851573,43.728 C114.968907,43.4399986 115.027573,43.1200018 115.027573,42.768 C115.027573,42.0639965 114.830242,41.5146686 114.435573,41.12 C114.040904,40.7253314 113.51291,40.528 112.851573,40.528 C112.499571,40.528 112.198241,40.5813328 111.947573,40.688 C111.696905,40.7946672 111.416908,40.9493323 111.107573,41.152 L110.403573,40.704 L110.739573,35.792 L115.843573,35.792 Z M120.771573,35.6 C121.272909,35.6 121.739571,35.7013323 122.171573,35.904 C122.603575,36.1066677 122.976905,36.4133313 123.291573,36.824 C123.606241,37.2346687 123.851572,37.7466636 124.027573,38.36 C124.203574,38.9733364 124.291573,39.6906626 124.291573,40.512 C124.291573,41.5360051 124.184907,42.4079964 123.971573,43.128 C123.758238,43.8480036 123.470241,44.4346644 123.107573,44.888 C122.744904,45.3413356 122.331575,45.671999 121.867573,45.88 C121.403571,46.088001 120.915575,46.192 120.403573,46.192 C119.85957,46.192 119.382242,46.0906677 118.971573,45.888 C118.560904,45.6853323 118.216908,45.4293349 117.939573,45.12 L118.675573,44.288 C118.888907,44.5333346 119.142238,44.7306659 119.435573,44.88 C119.728908,45.0293341 120.035571,45.104 120.355573,45.104 C120.718241,45.104 121.059571,45.0293341 121.379573,44.88 C121.699574,44.7306659 121.982238,44.4826684 122.227573,44.136 C122.472907,43.7893316 122.670239,43.3386694 122.819573,42.784 C122.968907,42.2293306 123.048906,41.5413374 123.059573,40.72 C122.739571,41.1253354 122.366242,41.4453322 121.939573,41.68 C121.512904,41.9146678 121.086242,42.032 120.659573,42.032 C119.774235,42.032 119.070242,41.7706693 118.547573,41.248 C118.024904,40.7253307 117.763573,39.9360053 117.763573,38.88 C117.763573,38.3893309 117.843572,37.944002 118.003573,37.544 C118.163574,37.143998 118.379572,36.8000014 118.651573,36.512 C118.923574,36.2239986 119.243571,36.0000008 119.611573,35.84 C119.979575,35.6799992 120.366238,35.6 120.771573,35.6 Z M201.859573,44.176 C202.115574,44.176 202.336905,44.2693324 202.523573,44.456 C202.71024,44.6426676 202.803573,44.8906651 202.803573,45.2 C202.803573,45.4880014 202.71024,45.7253324 202.523573,45.912 C202.336905,46.0986676 202.115574,46.192 201.859573,46.192 C201.592905,46.192 201.36624,46.0986676 201.179573,45.912 C200.992905,45.7253324 200.899573,45.4880014 200.899573,45.2 C200.899573,44.8906651 200.992905,44.6426676 201.179573,44.456 C201.36624,44.2693324 201.592905,44.176 201.859573,44.176 Z M249.715573,35.792 L249.715573,42.128 L251.107573,42.128 L251.107573,43.184 L249.715573,43.184 L249.715573,46 L248.467573,46 L248.467573,43.184 L243.875573,43.184 L243.875573,42.32 L248.243573,35.792 L249.715573,35.792 Z M195.571573,35.6 C196.520911,35.6 197.26757,35.8746639 197.811573,36.424 C198.355576,36.9733361 198.627573,37.7013288 198.627573,38.608 C198.627573,39.0880024 198.523574,39.5706642 198.315573,40.056 C198.107572,40.5413358 197.819575,41.0426641 197.451573,41.56 C197.083571,42.0773359 196.646242,42.6159972 196.139573,43.176 L195.507253,43.8646403 C195.178933,44.2172795 194.832375,44.5823981 194.467573,44.96 L195.331573,44.896 C195.630241,44.8746666 195.912905,44.864 196.179573,44.864 L199.139573,44.864 L199.139573,46 L192.547573,46 L192.547573,45.216 L193.635573,44.1199997 C193.976906,43.7733339 194.296905,43.4453349 194.595573,43.136 C195.192909,42.5173302 195.694238,41.9440026 196.099573,41.416 C196.504908,40.8879974 196.814238,40.4026689 197.027573,39.96 C197.240907,39.5173311 197.347573,39.0880021 197.347573,38.672 C197.347573,38.0853304 197.187574,37.6053352 196.867573,37.232 C196.547571,36.8586648 196.062243,36.672 195.411573,36.672 C194.984904,36.672 194.590241,36.7919988 194.227573,37.032 C193.864904,37.2720012 193.534241,37.562665 193.235573,37.904 L192.483573,37.152 C192.910242,36.6826643 193.36357,36.3066681 193.843573,36.024 C194.323575,35.7413319 194.89957,35.6 195.571573,35.6 Z M187.619573,35.6 C188.568911,35.6 189.31557,35.8746639 189.859573,36.424 C190.403576,36.9733361 190.675573,37.7013288 190.675573,38.608 C190.675573,39.0880024 190.571574,39.5706642 190.363573,40.056 C190.155572,40.5413358 189.867575,41.0426641 189.499573,41.56 C189.131571,42.0773359 188.694242,42.6159972 188.187573,43.176 L187.555253,43.8646403 C187.226933,44.2172795 186.880375,44.5823981 186.515573,44.96 L187.379573,44.896 C187.678241,44.8746666 187.960905,44.864 188.227573,44.864 L191.187573,44.864 L191.187573,46 L184.595573,46 L184.595573,45.216 L185.683573,44.1199997 C186.024906,43.7733339 186.344905,43.4453349 186.643573,43.136 C187.240909,42.5173302 187.742238,41.9440026 188.147573,41.416 C188.552908,40.8879974 188.862238,40.4026689 189.075573,39.96 C189.288907,39.5173311 189.395573,39.0880021 189.395573,38.672 C189.395573,38.0853304 189.235574,37.6053352 188.915573,37.232 C188.595571,36.8586648 188.110243,36.672 187.459573,36.672 C187.032904,36.672 186.638241,36.7919988 186.275573,37.032 C185.912904,37.2720012 185.582241,37.562665 185.283573,37.904 L184.531573,37.152 C184.958242,36.6826643 185.41157,36.3066681 185.891573,36.024 C186.371575,35.7413319 186.94757,35.6 187.619573,35.6 Z M216.707573,35.792 L216.707573,44.912 L218.819573,44.912 L218.819573,46 L213.059573,46 L213.059573,44.912 L215.395573,44.912 L215.395573,37.392 L213.539573,37.392 L213.539573,36.544 C214.008909,36.4586662 214.416904,36.3546673 214.763573,36.232 C215.110241,36.1093327 215.422238,35.9626675 215.699573,35.792 L216.707573,35.792 Z M227.027573,35.792 L227.027573,36.608 C226.41957,37.3760038 225.926241,38.1119965 225.547573,38.816 C225.168904,39.5200035 224.867574,40.2373297 224.643573,40.968 C224.419572,41.6986703 224.256907,42.4719959 224.155573,43.288 C224.054239,44.1040041 223.98224,45.007995 223.939573,46 L222.579573,46 C222.62224,45.0399952 222.707572,44.160004 222.835573,43.36 C222.963574,42.559996 223.142238,41.8000036 223.371573,41.08 C223.600907,40.3599964 223.894238,39.6640034 224.251573,38.992 C224.608908,38.3199966 225.038237,37.6320035 225.539573,36.928 L220.451573,36.928 L220.451573,35.792 L227.027573,35.792 Z M232.611573,35.792 L232.611573,44.912 L234.723573,44.912 L234.723573,46 L228.963573,46 L228.963573,44.912 L231.299573,44.912 L231.299573,37.392 L229.443573,37.392 L229.443573,36.544 C229.912909,36.4586662 230.320904,36.3546673 230.667573,36.232 C231.014241,36.1093327 231.326238,35.9626675 231.603573,35.792 L232.611573,35.792 Z M140.275573,41.04 C139.870238,41.3173347 139.531574,41.6399982 139.259573,42.008 C138.987572,42.3760018 138.851573,42.7946643 138.851573,43.264 C138.851573,43.5520014 138.907572,43.8133322 139.019573,44.048 C139.131573,44.2826678 139.286239,44.4879991 139.483573,44.664 C139.680907,44.8400009 139.912905,44.9759995 140.179573,45.072 C140.446241,45.1680005 140.734238,45.216 141.043573,45.216 C141.640909,45.216 142.123571,45.0506683 142.491573,44.72 C142.859575,44.3893317 143.043573,43.957336 143.043573,43.424 C143.043573,43.0933317 142.968907,42.8106678 142.819573,42.576 C142.670239,42.3413322 142.467574,42.1360009 142.211573,41.96 C141.955572,41.7839991 141.659575,41.6240007 141.323573,41.48 L140.633796,41.1884446 C140.51587,41.1392595 140.396462,41.089778 140.275573,41.04 Z M238.915573,41.04 C238.510238,41.3173347 238.171574,41.6399982 237.899573,42.008 C237.627572,42.3760018 237.491573,42.7946643 237.491573,43.264 C237.491573,43.5520014 237.547572,43.8133322 237.659573,44.048 C237.771573,44.2826678 237.926239,44.4879991 238.123573,44.664 C238.320907,44.8400009 238.552905,44.9759995 238.819573,45.072 C239.086241,45.1680005 239.374238,45.216 239.683573,45.216 C240.280909,45.216 240.763571,45.0506683 241.131573,44.72 C241.499575,44.3893317 241.683573,43.957336 241.683573,43.424 C241.683573,43.0933317 241.608907,42.8106678 241.459573,42.576 C241.310239,42.3413322 241.107574,42.1360009 240.851573,41.96 C240.595572,41.7839991 240.299575,41.6240007 239.963573,41.48 L239.273796,41.1884446 C239.15587,41.1392595 239.036462,41.089778 238.915573,41.04 Z M208.019573,40.752 C207.688905,40.752 207.331575,40.855999 206.947573,41.064 C206.563571,41.272001 206.211574,41.6159976 205.891573,42.096 C205.976907,43.0986717 206.208904,43.8586641 206.587573,44.376 C206.966241,44.8933359 207.480903,45.152 208.131573,45.152 C208.387574,45.152 208.622238,45.0986672 208.835573,44.992 C209.048907,44.8853328 209.235572,44.7333343 209.395573,44.536 C209.555574,44.3386657 209.680906,44.1040014 209.771573,43.832 C209.86224,43.5599986 209.907573,43.253335 209.907573,42.912 C209.907573,42.2399966 209.752908,41.7120019 209.443573,41.328 C209.134238,40.9439981 208.659576,40.752 208.019573,40.752 Z M133.043573,36.656 C132.744905,36.656 132.472907,36.7359992 132.227573,36.896 C131.982238,37.0560008 131.771574,37.3039983 131.595573,37.64 C131.419572,37.9760017 131.283573,38.410664 131.187573,38.944 C131.091572,39.477336 131.043573,40.1173296 131.043573,40.864 C131.043573,42.3573408 131.227571,43.4426633 131.595573,44.12 C131.963575,44.7973367 132.446237,45.136 133.043573,45.136 C133.342241,45.136 133.611572,45.0533342 133.851573,44.888 C134.091574,44.7226658 134.299572,44.4666684 134.475573,44.12 C134.651574,43.7733316 134.787572,43.3306694 134.883573,42.792 C134.979573,42.2533306 135.027573,41.6106704 135.027573,40.864 C135.027573,40.1173296 134.979573,39.477336 134.883573,38.944 C134.787572,38.410664 134.651574,37.9760017 134.475573,37.64 C134.299572,37.3039983 134.091574,37.0560008 133.851573,36.896 C133.611572,36.7359992 133.342241,36.656 133.043573,36.656 Z M248.547573,37.2 L248.483573,37.2 C248.355572,37.4453346 248.22224,37.6853322 248.083573,37.92 L248.083573,37.92 L247.651573,38.64 L245.267573,42.128 L248.467573,42.128 L248.467573,39.168 C248.467573,38.8906653 248.475573,38.5626686 248.491573,38.184 L248.491573,38.184 L248.517573,37.6539998 L248.547573,37.2 Z M120.771573,36.64 C120.526238,36.64 120.294241,36.6933328 120.075573,36.8 C119.856905,36.9066672 119.667574,37.0586657 119.507573,37.256 C119.347572,37.4533343 119.22224,37.6906653 119.131573,37.968 C119.040906,38.2453347 118.995573,38.5493317 118.995573,38.88 C118.995573,39.5520034 119.150238,40.0799981 119.459573,40.464 C119.768908,40.8480019 120.24357,41.04 120.883573,41.04 C121.224908,41.04 121.584904,40.9333344 121.963573,40.72 C122.342241,40.5066656 122.696905,40.1600024 123.027573,39.68 C122.942239,38.6773283 122.707575,37.9200026 122.323573,37.408 C121.939571,36.8959974 121.422243,36.64 120.771573,36.64 Z M141.027573,36.576 C140.54757,36.576 140.152908,36.7253318 139.843573,37.024 C139.534238,37.3226682 139.379573,37.7226642 139.379573,38.224 C139.379573,38.5333349 139.443572,38.7973322 139.571573,39.016 C139.699574,39.2346678 139.872905,39.4293325 140.091573,39.6 C140.310241,39.7706675 140.560905,39.922666 140.843573,40.056 C141.126241,40.189334 141.422238,40.3146661 141.731573,40.432 C142.072908,40.1226651 142.336905,39.797335 142.523573,39.456 C142.71024,39.114665 142.803573,38.7573352 142.803573,38.384 C142.803573,37.8719974 142.648908,37.4426684 142.339573,37.096 C142.030238,36.7493316 141.592909,36.576 141.027573,36.576 Z M239.667573,36.576 C239.18757,36.576 238.792908,36.7253318 238.483573,37.024 C238.174238,37.3226682 238.019573,37.7226642 238.019573,38.224 C238.019573,38.5333349 238.083572,38.7973322 238.211573,39.016 C238.339574,39.2346678 238.512905,39.4293325 238.731573,39.6 C238.950241,39.7706675 239.200905,39.922666 239.483573,40.056 C239.766241,40.189334 240.062238,40.3146661 240.371573,40.432 C240.712908,40.1226651 240.976905,39.797335 241.163573,39.456 C241.35024,39.114665 241.443573,38.7573352 241.443573,38.384 C241.443573,37.8719974 241.288908,37.4426684 240.979573,37.096 C240.670238,36.7493316 240.232909,36.576 239.667573,36.576 Z" id="Combined-Shape" fill="#333333" fill-rule="nonzero"></path>
                <path d="M110.251573,28 L110.251573,20.128 L111.247573,20.128 L111.247573,27.148 L114.691573,27.148 L114.691573,28 L110.251573,28 Z M118.111573,28.144 C117.751571,28.144 117.409574,28.0760007 117.085573,27.94 C116.761571,27.8039993 116.475574,27.6060013 116.227573,27.346 C115.979572,27.0859987 115.781574,26.7660019 115.633573,26.386 C115.485572,26.0059981 115.411573,25.5760024 115.411573,25.096 C115.411573,24.6079976 115.485572,24.1740019 115.633573,23.794 C115.781574,23.4139981 115.979572,23.0920013 116.227573,22.828 C116.475574,22.5639987 116.761571,22.3640007 117.085573,22.228 C117.409574,22.0919993 117.751571,22.024 118.111573,22.024 C118.471575,22.024 118.813571,22.0919993 119.137573,22.228 C119.461574,22.3640007 119.747572,22.5639987 119.995573,22.828 C120.243574,23.0920013 120.441572,23.4139981 120.589573,23.794 C120.737574,24.1740019 120.811573,24.6079976 120.811573,25.096 C120.811573,25.5760024 120.737574,26.0059981 120.589573,26.386 C120.441572,26.7660019 120.243574,27.0859987 119.995573,27.346 C119.747572,27.6060013 119.461574,27.8039993 119.137573,27.94 C118.813571,28.0760007 118.471575,28.144 118.111573,28.144 Z M118.111573,27.328 C118.359574,27.328 118.587572,27.2740005 118.795573,27.166 C119.003574,27.0579995 119.181572,26.906001 119.329573,26.71 C119.477574,26.513999 119.591572,26.2800014 119.671573,26.008 C119.751573,25.7359986 119.791573,25.4320017 119.791573,25.096 C119.791573,24.7599983 119.751573,24.4540014 119.671573,24.178 C119.591572,23.9019986 119.477574,23.664001 119.329573,23.464 C119.181572,23.263999 119.003574,23.1100005 118.795573,23.002 C118.587572,22.8939995 118.359574,22.84 118.111573,22.84 C117.863572,22.84 117.635574,22.8939995 117.427573,23.002 C117.219572,23.1100005 117.041574,23.263999 116.893573,23.464 C116.745572,23.664001 116.631573,23.9019986 116.551573,24.178 C116.471572,24.4540014 116.431573,24.7599983 116.431573,25.096 C116.431573,25.4320017 116.471572,25.7359986 116.551573,26.008 C116.631573,26.2800014 116.745572,26.513999 116.893573,26.71 C117.041574,26.906001 117.219572,27.0579995 117.427573,27.166 C117.635574,27.2740005 117.863572,27.328 118.111573,27.328 Z M124.651573,28.144 C124.267571,28.144 123.907575,28.0760007 123.571573,27.94 C123.235571,27.8039993 122.945574,27.6060013 122.701573,27.346 C122.457572,27.0859987 122.265574,26.7660019 122.125573,26.386 C121.985572,26.0059981 121.915573,25.5760024 121.915573,25.096 C121.915573,24.6079976 121.991572,24.1740019 122.143573,23.794 C122.295574,23.4139981 122.499572,23.0920013 122.755573,22.828 C123.011574,22.5639987 123.309571,22.3640007 123.649573,22.228 C123.989575,22.0919993 124.347571,22.024 124.723573,22.024 C125.107575,22.024 125.435572,22.0919993 125.707573,22.228 C125.979574,22.3640007 126.219572,22.524 126.427573,22.708 L125.923573,23.356 C125.755572,23.2039992 125.577574,23.0800005 125.389573,22.984 C125.201572,22.8879995 124.991574,22.84 124.759573,22.84 C124.495572,22.84 124.251574,22.8939995 124.027573,23.002 C123.803572,23.1100005 123.611574,23.263999 123.451573,23.464 C123.291572,23.664001 123.165573,23.9019986 123.073573,24.178 C122.981572,24.4540014 122.935573,24.7599983 122.935573,25.096 C122.935573,25.4320017 122.979572,25.7359986 123.067573,26.008 C123.155573,26.2800014 123.277572,26.513999 123.433573,26.71 C123.589574,26.906001 123.779572,27.0579995 124.003573,27.166 C124.227574,27.2740005 124.471572,27.328 124.735573,27.328 C125.007574,27.328 125.257572,27.2700006 125.485573,27.154 C125.713574,27.0379994 125.919572,26.9000008 126.103573,26.74 L126.535573,27.4 C126.271572,27.6320012 125.979574,27.8139993 125.659573,27.946 C125.339571,28.0780007 125.003575,28.144 124.651573,28.144 Z M129.043573,28.144 C128.55557,28.144 128.149574,28.0000014 127.825573,27.712 C127.501571,27.4239986 127.339573,27.0160026 127.339573,26.488 C127.339573,25.8479968 127.62357,25.3580017 128.191573,25.018 C128.759576,24.6779983 129.667567,24.4400007 130.915573,24.304 C130.915573,24.1199991 130.897573,23.9400009 130.861573,23.764 C130.825573,23.5879991 130.763573,23.4320007 130.675573,23.296 C130.587572,23.1599993 130.465574,23.0500004 130.309573,22.966 C130.153572,22.8819996 129.955574,22.84 129.715573,22.84 C129.379571,22.84 129.063574,22.9039994 128.767573,23.032 C128.471571,23.1600006 128.207574,23.3039992 127.975573,23.464 L127.591573,22.78 C127.863574,22.6039991 128.195571,22.4340008 128.587573,22.27 C128.979575,22.1059992 129.411571,22.024 129.883573,22.024 C130.595576,22.024 131.111571,22.2419978 131.431573,22.678 C131.751574,23.1140022 131.911573,23.6959964 131.911573,24.424 L131.911573,28 L131.095573,28 L131.011573,27.304 L130.975573,27.304 C130.695571,27.5360012 130.395574,27.7339992 130.075573,27.898 C129.755571,28.0620008 129.411575,28.144 129.043573,28.144 Z M129.331573,27.352 C129.611574,27.352 129.875572,27.2860007 130.123573,27.154 C130.371574,27.0219993 130.635571,26.8280013 130.915573,26.572 L130.915573,24.952 C130.42757,25.0160003 130.017575,25.0919996 129.685573,25.18 C129.353571,25.2680004 129.085574,25.3719994 128.881573,25.492 C128.677572,25.6120006 128.529573,25.7499992 128.437573,25.906 C128.345572,26.0620008 128.299573,26.2319991 128.299573,26.416 C128.299573,26.7520017 128.399572,26.9919993 128.599573,27.136 C128.799573,27.2800007 129.043571,27.352 129.331573,27.352 Z M135.415573,28.144 C135.103571,28.144 134.841574,28.0960005 134.629573,28 C134.417572,27.9039995 134.245574,27.7720008 134.113573,27.604 C133.981572,27.4359992 133.887573,27.2320012 133.831573,26.992 C133.775573,26.7519988 133.747573,26.4880014 133.747573,26.2 L133.747573,22.972 L132.883573,22.972 L132.883573,22.228 L133.795573,22.168 L133.915573,20.536 L134.743573,20.536 L134.743573,22.168 L136.315573,22.168 L136.315573,22.972 L134.743573,22.972 L134.743573,26.212 C134.743573,26.5720018 134.809572,26.849999 134.941573,27.046 C135.073574,27.242001 135.307571,27.34 135.643573,27.34 C135.747573,27.34 135.859572,27.3240002 135.979573,27.292 C136.099573,27.2599998 136.207572,27.2240002 136.303573,27.184 L136.495573,27.928 C136.335572,27.9840003 136.161574,28.0339998 135.973573,28.078 C135.785572,28.1220002 135.599574,28.144 135.415573,28.144 Z M137.635573,28 L137.635573,22.168 L138.619573,22.168 L138.619573,28 L137.635573,28 Z M138.139573,20.968 C137.947572,20.968 137.785574,20.9080006 137.653573,20.788 C137.521572,20.6679994 137.455573,20.5160009 137.455573,20.332 C137.455573,20.139999 137.521572,19.9860006 137.653573,19.87 C137.785574,19.7539994 137.947572,19.696 138.139573,19.696 C138.331574,19.696 138.493572,19.7539994 138.625573,19.87 C138.757574,19.9860006 138.823573,20.139999 138.823573,20.332 C138.823573,20.5160009 138.757574,20.6679994 138.625573,20.788 C138.493572,20.9080006 138.331574,20.968 138.139573,20.968 Z M142.855573,28.144 C142.495571,28.144 142.153574,28.0760007 141.829573,27.94 C141.505571,27.8039993 141.219574,27.6060013 140.971573,27.346 C140.723572,27.0859987 140.525574,26.7660019 140.377573,26.386 C140.229572,26.0059981 140.155573,25.5760024 140.155573,25.096 C140.155573,24.6079976 140.229572,24.1740019 140.377573,23.794 C140.525574,23.4139981 140.723572,23.0920013 140.971573,22.828 C141.219574,22.5639987 141.505571,22.3640007 141.829573,22.228 C142.153574,22.0919993 142.495571,22.024 142.855573,22.024 C143.215575,22.024 143.557571,22.0919993 143.881573,22.228 C144.205574,22.3640007 144.491572,22.5639987 144.739573,22.828 C144.987574,23.0920013 145.185572,23.4139981 145.333573,23.794 C145.481574,24.1740019 145.555573,24.6079976 145.555573,25.096 C145.555573,25.5760024 145.481574,26.0059981 145.333573,26.386 C145.185572,26.7660019 144.987574,27.0859987 144.739573,27.346 C144.491572,27.6060013 144.205574,27.8039993 143.881573,27.94 C143.557571,28.0760007 143.215575,28.144 142.855573,28.144 Z M142.855573,27.328 C143.103574,27.328 143.331572,27.2740005 143.539573,27.166 C143.747574,27.0579995 143.925572,26.906001 144.073573,26.71 C144.221574,26.513999 144.335572,26.2800014 144.415573,26.008 C144.495573,25.7359986 144.535573,25.4320017 144.535573,25.096 C144.535573,24.7599983 144.495573,24.4540014 144.415573,24.178 C144.335572,23.9019986 144.221574,23.664001 144.073573,23.464 C143.925572,23.263999 143.747574,23.1100005 143.539573,23.002 C143.331572,22.8939995 143.103574,22.84 142.855573,22.84 C142.607572,22.84 142.379574,22.8939995 142.171573,23.002 C141.963572,23.1100005 141.785574,23.263999 141.637573,23.464 C141.489572,23.664001 141.375573,23.9019986 141.295573,24.178 C141.215572,24.4540014 141.175573,24.7599983 141.175573,25.096 C141.175573,25.4320017 141.215572,25.7359986 141.295573,26.008 C141.375573,26.2800014 141.489572,26.513999 141.637573,26.71 C141.785574,26.906001 141.963572,27.0579995 142.171573,27.166 C142.379574,27.2740005 142.607572,27.328 142.855573,27.328 Z M147.091573,28 L147.091573,22.168 L147.907573,22.168 L147.991573,23.008 L148.027573,23.008 C148.307574,22.7279986 148.601571,22.4940009 148.909573,22.306 C149.217574,22.1179991 149.575571,22.024 149.983573,22.024 C150.599576,22.024 151.049571,22.2159981 151.333573,22.6 C151.617574,22.9840019 151.759573,23.5519962 151.759573,24.304 L151.759573,28 L150.775573,28 L150.775573,24.436 C150.775573,23.8839972 150.687574,23.4860012 150.511573,23.242 C150.335572,22.9979988 150.055575,22.876 149.671573,22.876 C149.367571,22.876 149.099574,22.9519992 148.867573,23.104 C148.635572,23.2560008 148.371574,23.4799985 148.075573,23.776 L148.075573,28 L147.091573,28 Z" id="Location" fill="#484847" fill-rule="nonzero"></path>
                <path d="M33.6075729,23.596 L33.2355729,24.796 L35.5995729,24.796 L35.2275729,23.596 C35.0835722,23.1559978 34.9475735,22.7180022 34.8195729,22.282 C34.6915722,21.8459978 34.5635735,21.4000023 34.4355729,20.944 L34.3875729,20.944 C34.2675723,21.4000023 34.1435735,21.8459978 34.0155729,22.282 C33.8875722,22.7180022 33.7515736,23.1559978 33.6075729,23.596 Z M31.2075729,28 L33.8715729,20.128 L34.9995729,20.128 L37.6635729,28 L36.5955729,28 L35.8515729,25.6 L32.9835729,25.6 L32.2275729,28 L31.2075729,28 Z M40.9875729,28.144 C40.603571,28.144 40.2435746,28.0760007 39.9075729,27.94 C39.5715712,27.8039993 39.2815741,27.6060013 39.0375729,27.346 C38.7935717,27.0859987 38.6015736,26.7660019 38.4615729,26.386 C38.3215722,26.0059981 38.2515729,25.5760024 38.2515729,25.096 C38.2515729,24.6079976 38.3275721,24.1740019 38.4795729,23.794 C38.6315736,23.4139981 38.8355716,23.0920013 39.0915729,22.828 C39.3475742,22.5639987 39.6455712,22.3640007 39.9855729,22.228 C40.3255746,22.0919993 40.683571,22.024 41.0595729,22.024 C41.4435748,22.024 41.7715715,22.0919993 42.0435729,22.228 C42.3155742,22.3640007 42.5555718,22.524 42.7635729,22.708 L42.2595729,23.356 C42.091572,23.2039992 41.9135738,23.0800005 41.7255729,22.984 C41.5375719,22.8879995 41.327574,22.84 41.0955729,22.84 C40.8315716,22.84 40.587574,22.8939995 40.3635729,23.002 C40.1395718,23.1100005 39.9475737,23.263999 39.7875729,23.464 C39.6275721,23.664001 39.5015733,23.9019986 39.4095729,24.178 C39.3175724,24.4540014 39.2715729,24.7599983 39.2715729,25.096 C39.2715729,25.4320017 39.3155724,25.7359986 39.4035729,26.008 C39.4915733,26.2800014 39.6135721,26.513999 39.7695729,26.71 C39.9255737,26.906001 40.1155718,27.0579995 40.3395729,27.166 C40.563574,27.2740005 40.8075716,27.328 41.0715729,27.328 C41.3435742,27.328 41.5935717,27.2700006 41.8215729,27.154 C42.049574,27.0379994 42.255572,26.9000008 42.4395729,26.74 L42.8715729,27.4 C42.6075716,27.6320012 42.3155745,27.8139993 41.9955729,27.946 C41.6755713,28.0780007 41.3395746,28.144 40.9875729,28.144 Z M46.2075729,28.144 C45.823571,28.144 45.4635746,28.0760007 45.1275729,27.94 C44.7915712,27.8039993 44.5015741,27.6060013 44.2575729,27.346 C44.0135717,27.0859987 43.8215736,26.7660019 43.6815729,26.386 C43.5415722,26.0059981 43.4715729,25.5760024 43.4715729,25.096 C43.4715729,24.6079976 43.5475721,24.1740019 43.6995729,23.794 C43.8515736,23.4139981 44.0555716,23.0920013 44.3115729,22.828 C44.5675742,22.5639987 44.8655712,22.3640007 45.2055729,22.228 C45.5455746,22.0919993 45.903571,22.024 46.2795729,22.024 C46.6635748,22.024 46.9915715,22.0919993 47.2635729,22.228 C47.5355742,22.3640007 47.7755718,22.524 47.9835729,22.708 L47.4795729,23.356 C47.311572,23.2039992 47.1335738,23.0800005 46.9455729,22.984 C46.7575719,22.8879995 46.547574,22.84 46.3155729,22.84 C46.0515716,22.84 45.807574,22.8939995 45.5835729,23.002 C45.3595718,23.1100005 45.1675737,23.263999 45.0075729,23.464 C44.8475721,23.664001 44.7215733,23.9019986 44.6295729,24.178 C44.5375724,24.4540014 44.4915729,24.7599983 44.4915729,25.096 C44.4915729,25.4320017 44.5355724,25.7359986 44.6235729,26.008 C44.7115733,26.2800014 44.8335721,26.513999 44.9895729,26.71 C45.1455737,26.906001 45.3355718,27.0579995 45.5595729,27.166 C45.783574,27.2740005 46.0275716,27.328 46.2915729,27.328 C46.5635742,27.328 46.8135717,27.2700006 47.0415729,27.154 C47.269574,27.0379994 47.475572,26.9000008 47.6595729,26.74 L48.0915729,27.4 C47.8275716,27.6320012 47.5355745,27.8139993 47.2155729,27.946 C46.8955713,28.0780007 46.5595746,28.144 46.2075729,28.144 Z M51.0795729,28.144 C50.4555698,28.144 50.0015743,27.9520019 49.7175729,27.568 C49.4335715,27.1839981 49.2915729,26.6160038 49.2915729,25.864 L49.2915729,22.168 L50.2875729,22.168 L50.2875729,25.732 C50.2875729,26.2840028 50.373572,26.6819988 50.5455729,26.926 C50.7175737,27.1700012 50.995571,27.292 51.3795729,27.292 C51.6835744,27.292 51.9515717,27.2140008 52.1835729,27.058 C52.415574,26.9019992 52.6715715,26.6520017 52.9515729,26.308 L52.9515729,22.168 L53.9355729,22.168 L53.9355729,28 L53.1195729,28 L53.0355729,27.088 L52.9995729,27.088 C52.7275715,27.4080016 52.4415744,27.663999 52.1415729,27.856 C51.8415714,28.048001 51.4875749,28.144 51.0795729,28.144 Z M55.9035729,28 L55.9035729,22.168 L56.7195729,22.168 L56.8035729,23.224 L56.8395729,23.224 C57.0395739,22.8559982 57.2815715,22.5640011 57.5655729,22.348 C57.8495743,22.1319989 58.1595712,22.024 58.4955729,22.024 C58.727574,22.024 58.935572,22.0639996 59.1195729,22.144 L58.9275729,23.008 C58.8315724,22.9759998 58.7435733,22.9520001 58.6635729,22.936 C58.5835725,22.9199999 58.4835735,22.912 58.3635729,22.912 C58.1155716,22.912 57.8575742,23.011999 57.5895729,23.212 C57.3215715,23.412001 57.0875739,23.7599975 56.8875729,24.256 L56.8875729,28 L55.9035729,28 Z M61.1235729,28.144 C60.6355704,28.144 60.2295745,28.0000014 59.9055729,27.712 C59.5815713,27.4239986 59.4195729,27.0160026 59.4195729,26.488 C59.4195729,25.8479968 59.70357,25.3580017 60.2715729,25.018 C60.8395757,24.6779983 61.7475666,24.4400007 62.9955729,24.304 C62.9955729,24.1199991 62.9775731,23.9400009 62.9415729,23.764 C62.9055727,23.5879991 62.8435733,23.4320007 62.7555729,23.296 C62.6675724,23.1599993 62.5455737,23.0500004 62.3895729,22.966 C62.2335721,22.8819996 62.0355741,22.84 61.7955729,22.84 C61.4595712,22.84 61.1435744,22.9039994 60.8475729,23.032 C60.5515714,23.1600006 60.287574,23.3039992 60.0555729,23.464 L59.6715729,22.78 C59.9435742,22.6039991 60.2755709,22.4340008 60.6675729,22.27 C61.0595748,22.1059992 61.4915705,22.024 61.9635729,22.024 C62.6755764,22.024 63.1915713,22.2419978 63.5115729,22.678 C63.8315745,23.1140022 63.9915729,23.6959964 63.9915729,24.424 L63.9915729,28 L63.1755729,28 L63.0915729,27.304 L63.0555729,27.304 C62.7755715,27.5360012 62.4755745,27.7339992 62.1555729,27.898 C61.8355713,28.0620008 61.4915747,28.144 61.1235729,28.144 Z M61.4115729,27.352 C61.6915743,27.352 61.9555716,27.2860007 62.2035729,27.154 C62.4515741,27.0219993 62.7155715,26.8280013 62.9955729,26.572 L62.9955729,24.952 C62.5075704,25.0160003 62.0975745,25.0919996 61.7655729,25.18 C61.4335712,25.2680004 61.1655739,25.3719994 60.9615729,25.492 C60.7575719,25.6120006 60.6095733,25.7499992 60.5175729,25.906 C60.4255724,26.0620008 60.3795729,26.2319991 60.3795729,26.416 C60.3795729,26.7520017 60.4795719,26.9919993 60.6795729,27.136 C60.8795729,27.2800007 61.1235714,27.352 61.4115729,27.352 Z M68.1315729,28.144 C67.747571,28.144 67.3875746,28.0760007 67.0515729,27.94 C66.7155712,27.8039993 66.4255741,27.6060013 66.1815729,27.346 C65.9375717,27.0859987 65.7455736,26.7660019 65.6055729,26.386 C65.4655722,26.0059981 65.3955729,25.5760024 65.3955729,25.096 C65.3955729,24.6079976 65.4715721,24.1740019 65.6235729,23.794 C65.7755736,23.4139981 65.9795716,23.0920013 66.2355729,22.828 C66.4915742,22.5639987 66.7895712,22.3640007 67.1295729,22.228 C67.4695746,22.0919993 67.827571,22.024 68.2035729,22.024 C68.5875748,22.024 68.9155715,22.0919993 69.1875729,22.228 C69.4595742,22.3640007 69.6995718,22.524 69.9075729,22.708 L69.4035729,23.356 C69.235572,23.2039992 69.0575738,23.0800005 68.8695729,22.984 C68.6815719,22.8879995 68.471574,22.84 68.2395729,22.84 C67.9755716,22.84 67.731574,22.8939995 67.5075729,23.002 C67.2835718,23.1100005 67.0915737,23.263999 66.9315729,23.464 C66.7715721,23.664001 66.6455733,23.9019986 66.5535729,24.178 C66.4615724,24.4540014 66.4155729,24.7599983 66.4155729,25.096 C66.4155729,25.4320017 66.4595724,25.7359986 66.5475729,26.008 C66.6355733,26.2800014 66.7575721,26.513999 66.9135729,26.71 C67.0695737,26.906001 67.2595718,27.0579995 67.4835729,27.166 C67.707574,27.2740005 67.9515716,27.328 68.2155729,27.328 C68.4875742,27.328 68.7375717,27.2700006 68.9655729,27.154 C69.193574,27.0379994 69.399572,26.9000008 69.5835729,26.74 L70.0155729,27.4 C69.7515716,27.6320012 69.4595745,27.8139993 69.1395729,27.946 C68.8195713,28.0780007 68.4835746,28.144 68.1315729,28.144 Z M71.4675729,30.508 C71.3315722,30.508 71.2075734,30.4980001 71.0955729,30.478 C70.9835723,30.4579999 70.8795734,30.4280002 70.7835729,30.388 L70.9755729,29.608 L71.1915729,29.662 C71.2715733,29.6820001 71.3475725,29.692 71.4195729,29.692 C71.7555746,29.692 72.0295718,29.5740012 72.2415729,29.338 C72.4535739,29.1019988 72.6195723,28.8040018 72.7395729,28.444 L72.8715729,28.012 L70.5315729,22.168 L71.5515729,22.168 L72.7395729,25.396 L72.9235728,25.9266663 C72.9555727,26.0182217 72.9882394,26.1113329 73.0215729,26.206 C73.1215734,26.4900014 73.2155724,26.7679986 73.3035729,27.04 L73.3515729,27.04 C73.4102398,26.8639991 73.4671284,26.6826667 73.5222395,26.4960003 L73.7635728,25.6573336 C73.7902394,25.5684449 73.8169061,25.4813338 73.8435729,25.396 L74.8875729,22.168 L75.8475729,22.168 L73.6515729,28.48 C73.5475724,28.7680014 73.4315735,29.0359988 73.3035729,29.284 C73.1755722,29.5320012 73.0235738,29.7459991 72.8475729,29.926 C72.671572,30.1060009 72.471574,30.2479995 72.2475729,30.352 C72.0235718,30.4560005 71.7635744,30.508 71.4675729,30.508 Z" id="Accuracy" fill="#484847" fill-rule="nonzero"></path>
                <path d="M42.8515729,35.6 C43.2995751,35.6 43.7102377,35.6586661 44.0835729,35.776 C44.4569081,35.8933339 44.7795715,36.0613322 45.0515729,36.28 C45.3235742,36.4986678 45.5342388,36.7679984 45.6835729,37.088 C45.832907,37.4080016 45.9075729,37.7759979 45.9075729,38.192 C45.9075729,38.8106698 45.7369079,39.3173314 45.3955729,39.712 C45.0542378,40.1066686 44.6062423,40.4106656 44.0515729,40.624 L44.0515729,40.688 C44.3609078,40.762667 44.6489049,40.8719993 44.9155729,41.016 C45.1822409,41.1600007 45.4169052,41.3413322 45.6195729,41.56 C45.8222406,41.7786678 45.9795723,42.0319986 46.0915729,42.32 C46.2035734,42.6080014 46.2595729,42.9279982 46.2595729,43.28 C46.2595729,43.7280022 46.1715738,44.1333315 45.9955729,44.496 C45.819572,44.8586685 45.5795744,45.1653321 45.2755729,45.416 C44.9715714,45.6666679 44.6169082,45.858666 44.2115729,45.992 C43.8062375,46.125334 43.3689086,46.192 42.8995729,46.192 C42.4942375,46.192 42.1235746,46.1520004 41.7875729,46.072 C41.4515712,45.9919996 41.1449076,45.885334 40.8675729,45.752 C40.5902382,45.618666 40.3422406,45.4666675 40.1235729,45.296 C39.9049051,45.1253325 39.7102404,44.944001 39.5395729,44.752 L40.2115729,43.888 C40.5209078,44.2080016 40.8809042,44.4906654 41.2915729,44.736 C41.7022416,44.9813346 42.2115698,45.104 42.8195729,45.104 C43.4382426,45.104 43.9449042,44.9360017 44.3395729,44.6 C44.7342415,44.2639983 44.9315729,43.8080029 44.9315729,43.232 C44.9315729,42.9333318 44.8755734,42.6586679 44.7635729,42.408 C44.6515723,42.1573321 44.4675742,41.9413342 44.2115729,41.76 C43.9555716,41.5786658 43.619575,41.4400005 43.2035729,41.344 C42.7875708,41.2479995 42.2755759,41.2 41.6675729,41.2 L41.6675729,40.192 C42.2115756,40.192 42.667571,40.1440005 43.0355729,40.048 C43.4035747,39.9519995 43.7022384,39.8186675 43.9315729,39.648 C44.1609074,39.4773325 44.3235724,39.2746678 44.4195729,39.04 C44.5155734,38.8053322 44.5635729,38.554668 44.5635729,38.288 C44.5635729,37.7866642 44.4062411,37.3920014 44.0915729,37.104 C43.7769046,36.8159986 43.3475756,36.672 42.8035729,36.672 C42.3769041,36.672 41.984908,36.767999 41.6275729,36.96 C41.2702378,37.152001 40.9369078,37.4026651 40.6275729,37.712 L39.9235729,36.88 C40.3182415,36.5066648 40.7529038,36.2000012 41.2275729,35.96 C41.7022419,35.7199988 42.2435698,35.6 42.8515729,35.6 Z M56.9955729,35.312 L51.2035729,46.192 L50.3075729,46.192 L56.0995729,35.312 L56.9955729,35.312 Z M57.3315729,39.568 C58.0462431,39.568 58.6222374,39.8533305 59.0595729,40.424 C59.4969084,40.9946695 59.7155729,41.8079947 59.7155729,42.864 C59.7155729,43.930672 59.4969084,44.7519971 59.0595729,45.328 C58.6222374,45.9040029 58.0462431,46.192 57.3315729,46.192 C56.6062359,46.192 56.027575,45.9040029 55.5955729,45.328 C55.1635707,44.7519971 54.9475729,43.930672 54.9475729,42.864 C54.9475729,41.8079947 55.1635707,40.9946695 55.5955729,40.424 C56.027575,39.8533305 56.6062359,39.568 57.3315729,39.568 Z M38.4515729,35.792 L38.4515729,36.608 C37.8435698,37.3760038 37.3502414,38.1119965 36.9715729,38.816 C36.5929043,39.5200035 36.291574,40.2373297 36.0675729,40.968 C35.8435718,41.6986703 35.6809067,42.4719959 35.5795729,43.288 C35.478239,44.1040041 35.4062398,45.007995 35.3635729,46 L34.0035729,46 C34.0462398,45.0399952 34.1315722,44.160004 34.2595729,43.36 C34.3875735,42.559996 34.5662384,41.8000036 34.7955729,41.08 C35.0249074,40.3599964 35.3182378,39.6640034 35.6755729,38.992 C36.032908,38.3199966 36.462237,37.6320035 36.9635729,36.928 L31.8755729,36.928 L31.8755729,35.792 L38.4515729,35.792 Z M57.3315729,40.384 C56.9155708,40.384 56.5795742,40.5893313 56.3235729,41 C56.0675716,41.4106687 55.9395729,42.0319958 55.9395729,42.864 C55.9395729,43.6960042 56.0675716,44.3226646 56.3235729,44.744 C56.5795742,45.1653354 56.9155708,45.376 57.3315729,45.376 C57.7369082,45.376 58.0675716,45.1653354 58.3235729,44.744 C58.5795742,44.3226646 58.7075729,43.6960042 58.7075729,42.864 C58.7075729,42.0319958 58.5795742,41.4106687 58.3235729,41 C58.0675716,40.5893313 57.7369082,40.384 57.3315729,40.384 Z M50.0195729,35.312 C50.7342431,35.312 51.3102374,35.5973305 51.7475729,36.168 C52.1849084,36.7386695 52.4035729,37.5519947 52.4035729,38.608 C52.4035729,39.674672 52.1849084,40.4959971 51.7475729,41.072 C51.3102374,41.6480029 50.7342431,41.936 50.0195729,41.936 C49.2942359,41.936 48.715575,41.6480029 48.2835729,41.072 C47.8515707,40.4959971 47.6355729,39.674672 47.6355729,38.608 C47.6355729,37.5519947 47.8515707,36.7386695 48.2835729,36.168 C48.715575,35.5973305 49.2942359,35.312 50.0195729,35.312 Z M50.0195729,36.128 C49.6035708,36.128 49.2675742,36.3333313 49.0115729,36.744 C48.7555716,37.1546687 48.6275729,37.7759958 48.6275729,38.608 C48.6275729,39.4400042 48.7555716,40.0666646 49.0115729,40.488 C49.2675742,40.9093354 49.6035708,41.12 50.0195729,41.12 C50.4249082,41.12 50.7555716,40.9093354 51.0115729,40.488 C51.2675742,40.0666646 51.3955729,39.4400042 51.3955729,38.608 C51.3955729,37.7759958 51.2675742,37.1546687 51.0115729,36.744 C50.7555716,36.3333313 50.4249082,36.128 50.0195729,36.128 Z" id="Combined-Shape" fill="#333333" fill-rule="nonzero"></path>
            </g>
        </g>
    </g>
</svg>