<?xml version="1.0" encoding="UTF-8"?>
<svg width="253px" height="92px" viewBox="0 0 253 92" version="1.1" xmlns="http://www.w3.org/2000/svg" xmlns:xlink="http://www.w3.org/1999/xlink">
    <!-- Generator: Sketch 59.1 (86144) - https://sketch.com -->
    <title>Modal</title>
    <desc>Created with Sketch.</desc>
    <g id="Page-1" stroke="none" stroke-width="1" fill="none" fill-rule="evenodd">
        <g id="11" transform="translate(-964.000000, -365.000000)">
            <g id="Modal" transform="translate(963.828427, 365.000000)">
                <path d="M2.17157288,0 L251.171573,0 C252.276142,-2.02906125e-16 253.171573,0.8954305 253.171573,2 L253.171573,90 C253.171573,91.1045695 252.276142,92 251.171573,92 L0.171572875,92 L0.171572875,92 L0.171572875,2 C0.171572875,0.8954305 1.06700338,2.02906125e-16 2.17157288,0 Z" id="Combined-Shape" fill="#FFFFFF"></path>
                <rect id="Rectangle" fill="#CDCDCA" x="77.1715729" y="20" width="1" height="28"></rect>
                <path d="M165.659573,65.952 C166.150242,65.952 166.584904,66.0453324 166.963573,66.232 C167.342241,66.4186676 167.664905,66.6879982 167.931573,67.04 C168.198241,67.3920018 168.400906,67.8133309 168.539573,68.304 C168.67824,68.7946691 168.747573,69.343997 168.747573,69.952 C168.747573,70.6240034 168.65424,71.2239974 168.467573,71.752 C168.280905,72.2800026 168.032908,72.7226649 167.723573,73.08 C167.414238,73.4373351 167.056908,73.711999 166.651573,73.904 C166.246238,74.096001 165.824908,74.192 165.387573,74.192 C165.046238,74.192 164.704908,74.1173341 164.363573,73.968 C164.022238,73.8186659 163.691574,73.6053347 163.371573,73.328 L163.419573,74.64 L163.419573,77.104 L161.579573,77.104 L161.579573,66.144 L163.099573,66.144 L163.227573,66.976 L163.291573,66.976 C163.622241,66.6986653 163.990238,66.4586677 164.395573,66.256 C164.800908,66.0533323 165.222237,65.952 165.659573,65.952 Z M78.8275729,65.952 C79.8089111,65.952 80.5422371,66.2426638 81.0275729,66.824 C81.5129086,67.4053362 81.7555729,68.2453278 81.7555729,69.344 L81.7555729,74 L80.2355729,74 L80.1075729,73.136 L80.0435729,73.136 C79.6915711,73.4346682 79.3155749,73.6853323 78.9155729,73.888 C78.5155709,74.0906677 78.0809086,74.192 77.6115729,74.192 C76.9182361,74.192 76.3582417,73.9813354 75.9315729,73.56 C75.5049041,73.1386646 75.2915729,72.5813368 75.2915729,71.888 C75.2915729,71.4719979 75.379572,71.101335 75.5555729,70.776 C75.7315738,70.450665 76.0089043,70.1706678 76.3875729,69.936 C76.7662414,69.7013322 77.2462366,69.5040008 77.8275729,69.344 C78.4089091,69.1839992 79.1049022,69.0613338 79.9155729,68.976 C79.9049062,68.7733323 79.8755731,68.5786676 79.8275729,68.392 C79.7795726,68.2053324 79.6995734,68.0400007 79.5875729,67.896 C79.4755723,67.7519993 79.3289071,67.6400004 79.1475729,67.56 C78.9662386,67.4799996 78.7422409,67.44 78.4755729,67.44 C78.091571,67.44 77.7155747,67.5146659 77.3475729,67.664 C76.979571,67.8133341 76.6195746,67.9946656 76.2675729,68.208 L75.5955729,66.976 C76.0329084,66.6986653 76.5235702,66.4586677 77.0675729,66.256 C77.6115756,66.0533323 78.1982364,65.952 78.8275729,65.952 Z M20.7635729,63.344 C21.3715759,63.344 21.9582367,63.4639988 22.5235729,63.704 C23.088909,63.9440012 23.5742375,64.2666646 23.9795729,64.672 L23.0355729,65.856 C22.6942378,65.5786653 22.3422414,65.3600008 21.9795729,65.2 C21.6169044,65.0399992 21.2115751,64.96 20.7635729,64.96 C20.262237,64.96 19.862241,65.0693322 19.5635729,65.288 C19.2649047,65.5066678 19.1155729,65.8079981 19.1155729,66.192 C19.1155729,66.3946677 19.1609058,66.5679993 19.2515729,66.712 C19.34224,66.8560007 19.4649054,66.9839994 19.6195729,67.096 C19.7742403,67.2080006 19.9529052,67.3093329 20.1555729,67.4 L20.4635729,67.534 L22.2035729,68.256 C22.5129078,68.3840006 22.7955716,68.5333325 23.0515729,68.704 C23.3075742,68.8746675 23.5289053,69.0719989 23.7155729,69.296 C23.9022405,69.5200011 24.0489057,69.7786652 24.1555729,70.072 C24.2622401,70.3653348 24.3155729,70.7039981 24.3155729,71.088 C24.3155729,71.5146688 24.2302404,71.9146648 24.0595729,72.288 C23.8889054,72.6613352 23.6409078,72.9893319 23.3155729,73.272 C22.9902379,73.5546681 22.5955752,73.7786658 22.1315729,73.944 C21.6675706,74.1093342 21.1422425,74.192 20.5555729,74.192 C19.8515694,74.192 19.1715762,74.058668 18.5155729,73.792 C17.8595696,73.525332 17.2809087,73.1466691 16.7795729,72.656 L17.8675729,71.392 C18.2409081,71.7440018 18.6675705,72.0293322 19.1475729,72.248 C19.6275753,72.4666678 20.1075705,72.576 20.5875729,72.576 C21.1849092,72.576 21.638238,72.4533346 21.9475729,72.208 C22.2569078,71.9626654 22.4115729,71.6373354 22.4115729,71.232 C22.4115729,71.0186656 22.3715733,70.8373341 22.2915729,70.688 C22.2115725,70.5386659 22.0995736,70.4080006 21.9555729,70.296 C21.8115722,70.1839994 21.6409072,70.0800005 21.4435729,69.984 C21.2462386,69.8879995 21.0302407,69.7920005 20.7955729,69.696 L19.3555729,69.072 C19.0995716,68.9653328 18.8462408,68.8320008 18.5955729,68.672 C18.344905,68.5119992 18.1182406,68.3200011 17.9155729,68.096 C17.7129052,67.8719989 17.5502402,67.6106682 17.4275729,67.312 C17.3049056,67.0133318 17.2435729,66.6720019 17.2435729,66.288 C17.2435729,65.8719979 17.331572,65.4853351 17.5075729,65.128 C17.6835738,64.7706649 17.926238,64.458668 18.2355729,64.192 C18.5449078,63.925332 18.9155707,63.7173341 19.3475729,63.568 C19.7795729,63.4186659 20.2515703,63.344 20.7635729,63.344 Z M29.1635729,65.952 C29.6969089,65.952 30.1662375,66.0426658 30.5715729,66.224 C30.9769082,66.4053342 31.3155715,66.6613317 31.5875729,66.992 C31.8595742,67.3226683 32.0649055,67.717331 32.2035729,68.176 C32.3422402,68.634669 32.4115729,69.1359973 32.4115729,69.68 C32.4115729,69.8613342 32.403573,70.0319992 32.3875729,70.192 L32.3615729,70.4080001 C32.3522396,70.472 32.3422396,70.5279998 32.3315729,70.576 L27.3395729,70.576 C27.4249066,71.2800035 27.6729042,71.8213314 28.0835729,72.2 C28.4942416,72.5786686 29.0195697,72.768 29.6595729,72.768 C30.0009079,72.768 30.3182381,72.7173338 30.6115729,72.616 C30.9049077,72.5146662 31.1955714,72.3733342 31.4835729,72.192 L32.1075729,73.344 C31.7342377,73.5893346 31.3182418,73.7919992 30.8595729,73.952 C30.4009039,74.1120008 29.9209087,74.192 29.4195729,74.192 C28.8755702,74.192 28.3689086,74.0986676 27.8995729,73.912 C27.4302372,73.7253324 27.0195746,73.4560018 26.6675729,73.104 C26.3155711,72.7519982 26.0409072,72.3226692 25.8435729,71.816 C25.6462386,71.3093308 25.5475729,70.7306699 25.5475729,70.08 C25.5475729,69.4399968 25.6489052,68.8640026 25.8515729,68.352 C26.0542406,67.8399974 26.3235712,67.4080018 26.6595729,67.056 C26.9955746,66.7039982 27.3822374,66.432001 27.8195729,66.24 C28.2569084,66.047999 28.7049039,65.952 29.1635729,65.952 Z M137.691573,64 L137.691573,66.144 L139.691573,66.144 L139.691573,67.6 L137.691573,67.6 L137.691573,71.344 C137.691573,72.2613379 138.059569,72.72 138.795573,72.72 C138.93424,72.72 139.075572,72.7040002 139.219573,72.672 C139.363574,72.6399998 139.494239,72.5973336 139.611573,72.544 L139.931573,73.904 C139.718238,73.978667 139.475574,74.045333 139.203573,74.104 C138.931572,74.162667 138.640908,74.192 138.331573,74.192 C137.872904,74.192 137.486241,74.1226674 137.171573,73.984 C136.856905,73.8453326 136.600907,73.6506679 136.403573,73.4 C136.206239,73.1493321 136.06224,72.8506684 135.971573,72.504 C135.880906,72.1573316 135.835573,71.7706688 135.835573,71.344 L135.835573,67.6 L134.715573,67.6 L134.715573,66.224 L135.931573,66.144 L136.155573,64 L137.691573,64 Z M200.379573,65.952 C200.912909,65.952 201.382238,66.0426658 201.787573,66.224 C202.192908,66.4053342 202.531572,66.6613317 202.803573,66.992 C203.075574,67.3226683 203.280906,67.717331 203.419573,68.176 C203.55824,68.634669 203.627573,69.1359973 203.627573,69.68 C203.627573,69.8613342 203.619573,70.0319992 203.603573,70.192 L203.577573,70.4080001 C203.56824,70.472 203.55824,70.5279998 203.547573,70.576 L198.555573,70.576 C198.640907,71.2800035 198.888904,71.8213314 199.299573,72.2 C199.710242,72.5786686 200.23557,72.768 200.875573,72.768 C201.216908,72.768 201.534238,72.7173338 201.827573,72.616 C202.120908,72.5146662 202.411571,72.3733342 202.699573,72.192 L203.323573,73.344 C202.950238,73.5893346 202.534242,73.7919992 202.075573,73.952 C201.616904,74.1120008 201.136909,74.192 200.635573,74.192 C200.09157,74.192 199.584909,74.0986676 199.115573,73.912 C198.646237,73.7253324 198.235575,73.4560018 197.883573,73.104 C197.531571,72.7519982 197.256907,72.3226692 197.059573,71.816 C196.862239,71.3093308 196.763573,70.7306699 196.763573,70.08 C196.763573,69.4399968 196.864905,68.8640026 197.067573,68.352 C197.270241,67.8399974 197.539571,67.4080018 197.875573,67.056 C198.211575,66.7039982 198.598237,66.432001 199.035573,66.24 C199.472908,66.047999 199.920904,65.952 200.379573,65.952 Z M117.835573,65.952 C118.326242,65.952 118.798237,66.0453324 119.251573,66.232 C119.704908,66.4186676 120.102238,66.6879982 120.443573,67.04 C120.784908,67.3920018 121.059572,67.8239974 121.267573,68.336 C121.475574,68.8480026 121.579573,69.4293301 121.579573,70.08 C121.579573,70.7306699 121.475574,71.3119974 121.267573,71.824 C121.059572,72.3360026 120.784908,72.7679982 120.443573,73.12 C120.102238,73.4720018 119.704908,73.7386658 119.251573,73.92 C118.798237,74.1013342 118.326242,74.192 117.835573,74.192 C117.344904,74.192 116.875575,74.1013342 116.427573,73.92 C115.979571,73.7386658 115.582241,73.4720018 115.235573,73.12 C114.888904,72.7679982 114.614241,72.3360026 114.411573,71.824 C114.208905,71.3119974 114.107573,70.7306699 114.107573,70.08 C114.107573,69.4293301 114.208905,68.8480026 114.411573,68.336 C114.614241,67.8239974 114.888904,67.3920018 115.235573,67.04 C115.582241,66.6879982 115.979571,66.4186676 116.427573,66.232 C116.875575,66.0453324 117.344904,65.952 117.835573,65.952 Z M96.8915729,65.952 C97.382242,65.952 97.8542373,66.0453324 98.3075729,66.232 C98.7609085,66.4186676 99.1582378,66.6879982 99.4995729,67.04 C99.8409079,67.3920018 100.115572,67.8239974 100.323573,68.336 C100.531574,68.8480026 100.635573,69.4293301 100.635573,70.08 C100.635573,70.7306699 100.531574,71.3119974 100.323573,71.824 C100.115572,72.3360026 99.8409079,72.7679982 99.4995729,73.12 C99.1582378,73.4720018 98.7609085,73.7386658 98.3075729,73.92 C97.8542373,74.1013342 97.382242,74.192 96.8915729,74.192 C96.4009038,74.192 95.9315751,74.1013342 95.4835729,73.92 C95.0355706,73.7386658 94.6382413,73.4720018 94.2915729,73.12 C93.9449045,72.7679982 93.6702406,72.3360026 93.4675729,71.824 C93.2649052,71.3119974 93.1635729,70.7306699 93.1635729,70.08 C93.1635729,69.4293301 93.2649052,68.8480026 93.4675729,68.336 C93.6702406,67.8239974 93.9449045,67.3920018 94.2915729,67.04 C94.6382413,66.6879982 95.0355706,66.4186676 95.4835729,66.232 C95.9315751,66.0453324 96.4009038,65.952 96.8915729,65.952 Z M85.8355729,64 L85.8355729,66.144 L87.8355729,66.144 L87.8355729,67.6 L85.8355729,67.6 L85.8355729,71.344 C85.8355729,72.2613379 86.2035692,72.72 86.9395729,72.72 C87.0782402,72.72 87.2195722,72.7040002 87.3635729,72.672 C87.5075736,72.6399998 87.638239,72.5973336 87.7555729,72.544 L88.0755729,73.904 C87.8622385,73.978667 87.6195742,74.045333 87.3475729,74.104 C87.0755715,74.162667 86.7849078,74.192 86.4755729,74.192 C86.0169039,74.192 85.6302411,74.1226674 85.3155729,73.984 C85.0009046,73.8453326 84.7449072,73.6506679 84.5475729,73.4 C84.3502386,73.1493321 84.20624,72.8506684 84.1155729,72.504 C84.0249058,72.1573316 83.9795729,71.7706688 83.9795729,71.344 L83.9795729,67.6 L82.8595729,67.6 L82.8595729,66.224 L84.0755729,66.144 L84.2995729,64 L85.8355729,64 Z M153.371573,65.952 C153.904909,65.952 154.374238,66.0426658 154.779573,66.224 C155.184908,66.4053342 155.523572,66.6613317 155.795573,66.992 C156.067574,67.3226683 156.272906,67.717331 156.411573,68.176 C156.55024,68.634669 156.619573,69.1359973 156.619573,69.68 C156.619573,69.8613342 156.611573,70.0319992 156.595573,70.192 L156.569573,70.4080001 C156.56024,70.472 156.55024,70.5279998 156.539573,70.576 L151.547573,70.576 C151.632907,71.2800035 151.880904,71.8213314 152.291573,72.2 C152.702242,72.5786686 153.22757,72.768 153.867573,72.768 C154.208908,72.768 154.526238,72.7173338 154.819573,72.616 C155.112908,72.5146662 155.403571,72.3733342 155.691573,72.192 L156.315573,73.344 C155.942238,73.5893346 155.526242,73.7919992 155.067573,73.952 C154.608904,74.1120008 154.128909,74.192 153.627573,74.192 C153.08357,74.192 152.576909,74.0986676 152.107573,73.912 C151.638237,73.7253324 151.227575,73.4560018 150.875573,73.104 C150.523571,72.7519982 150.248907,72.3226692 150.051573,71.816 C149.854239,71.3093308 149.755573,70.7306699 149.755573,70.08 C149.755573,69.4399968 149.856905,68.8640026 150.059573,68.352 C150.262241,67.8399974 150.531571,67.4080018 150.867573,67.056 C151.203575,66.7039982 151.590237,66.432001 152.027573,66.24 C152.464908,66.047999 152.912904,65.952 153.371573,65.952 Z M49.8195729,62.704 L49.8195729,74 L48.2995729,74 L48.1715729,73.152 L48.1075729,73.152 C47.8195714,73.4400014 47.4835748,73.6853323 47.0995729,73.888 C46.715571,74.0906677 46.3102417,74.192 45.8835729,74.192 C44.8915679,74.192 44.1049091,73.8320036 43.5235729,73.112 C42.9422366,72.3919964 42.6515729,71.3813398 42.6515729,70.08 C42.6515729,69.4399968 42.7449053,68.8640026 42.9315729,68.352 C43.1182405,67.8399974 43.366238,67.4080018 43.6755729,67.056 C43.9849078,66.704 44.3395709,66.432001 44.7395729,66.24 C45.1395749,66.047999 45.5529041,65.952 45.9795729,65.952 C46.4275751,65.952 46.806238,66.0293326 47.1155729,66.184 C47.4249078,66.3386674 47.734238,66.549332 48.0435729,66.816 L47.9795729,65.552 L47.9795729,62.704 L49.8195729,62.704 Z M71.8995729,65.952 C72.4115754,65.952 72.851571,66.0373325 73.2195729,66.208 C73.5875747,66.3786675 73.9155714,66.5866654 74.2035729,66.832 L73.3075729,68.032 C73.0942385,67.8506658 72.8835739,67.7093338 72.6755729,67.608 C72.4675718,67.5066662 72.2409074,67.456 71.9955729,67.456 C71.3555697,67.456 70.8382415,67.693331 70.4435729,68.168 C70.0489042,68.642669 69.8515729,69.279996 69.8515729,70.08 C69.8515729,70.8693373 70.0462376,71.501331 70.4355729,71.976 C70.8249082,72.450669 71.3289031,72.688 71.9475729,72.688 C72.2569078,72.688 72.5475715,72.621334 72.8195729,72.488 C73.0915742,72.354666 73.3395718,72.1973342 73.5635729,72.016 L74.3155729,73.232 C73.9422377,73.5520016 73.5342418,73.7919992 73.0915729,73.952 C72.648904,74.1120008 72.2035751,74.192 71.7555729,74.192 C71.2222369,74.192 70.7235752,74.1013342 70.2595729,73.92 C69.7955706,73.7386658 69.3929079,73.4720018 69.0515729,73.12 C68.7102378,72.7679982 68.4435738,72.3360026 68.2515729,71.824 C68.0595719,71.3119974 67.9635729,70.7306699 67.9635729,70.08 C67.9635729,69.4293301 68.0702385,68.8480026 68.2835729,68.336 C68.4969073,67.8239974 68.7849044,67.3920018 69.1475729,67.04 C69.5102414,66.6879982 69.9289038,66.4186676 70.4035729,66.232 C70.8782419,66.0453324 71.3769036,65.952 71.8995729,65.952 Z M182.747573,65.952 C183.238242,65.952 183.710237,66.0453324 184.163573,66.232 C184.616908,66.4186676 185.014238,66.6879982 185.355573,67.04 C185.696908,67.3920018 185.971572,67.8239974 186.179573,68.336 C186.387574,68.8480026 186.491573,69.4293301 186.491573,70.08 C186.491573,70.7306699 186.387574,71.3119974 186.179573,71.824 C185.971572,72.3360026 185.696908,72.7679982 185.355573,73.12 C185.014238,73.4720018 184.616908,73.7386658 184.163573,73.92 C183.710237,74.1013342 183.238242,74.192 182.747573,74.192 C182.256904,74.192 181.787575,74.1013342 181.339573,73.92 C180.891571,73.7386658 180.494241,73.4720018 180.147573,73.12 C179.800904,72.7679982 179.526241,72.3360026 179.323573,71.824 C179.120905,71.3119974 179.019573,70.7306699 179.019573,70.08 C179.019573,69.4293301 179.120905,68.8480026 179.323573,68.336 C179.526241,67.8239974 179.800904,67.3920018 180.147573,67.04 C180.494241,66.6879982 180.891571,66.4186676 181.339573,66.232 C181.787575,66.0453324 182.256904,65.952 182.747573,65.952 Z M57.1955729,62.704 L57.1955729,72.08 C57.1955729,72.3040011 57.2382391,72.4613329 57.3235729,72.552 C57.4089066,72.6426671 57.4995724,72.688 57.5955729,72.688 L57.7155729,72.688 C57.7529064,72.688 57.8089058,72.6773334 57.8835729,72.656 L58.1235729,74.032 C57.8782383,74.1386672 57.5529082,74.192 57.1475729,74.192 C56.4862362,74.192 56.0222409,73.9946686 55.7555729,73.6 C55.4889049,73.2053314 55.3555729,72.6666701 55.3555729,71.984 L55.3555729,62.704 L57.1955729,62.704 Z M62.9075729,65.952 C63.398242,65.952 63.8702373,66.0453324 64.3235729,66.232 C64.7769085,66.4186676 65.1742378,66.6879982 65.5155729,67.04 C65.8569079,67.3920018 66.1315718,67.8239974 66.3395729,68.336 C66.5475739,68.8480026 66.6515729,69.4293301 66.6515729,70.08 C66.6515729,70.7306699 66.5475739,71.3119974 66.3395729,71.824 C66.1315718,72.3360026 65.8569079,72.7679982 65.5155729,73.12 C65.1742378,73.4720018 64.7769085,73.7386658 64.3235729,73.92 C63.8702373,74.1013342 63.398242,74.192 62.9075729,74.192 C62.4169038,74.192 61.9475751,74.1013342 61.4995729,73.92 C61.0515706,73.7386658 60.6542413,73.4720018 60.3075729,73.12 C59.9609045,72.7679982 59.6862406,72.3360026 59.4835729,71.824 C59.2809052,71.3119974 59.1795729,70.7306699 59.1795729,70.08 C59.1795729,69.4293301 59.2809052,68.8480026 59.4835729,68.336 C59.6862406,67.8239974 59.9609045,67.3920018 60.3075729,67.04 C60.6542413,66.6879982 61.0515706,66.4186676 61.4995729,66.232 C61.9475751,66.0453324 62.4169038,65.952 62.9075729,65.952 Z M38.4595729,65.952 C39.3022438,65.952 39.915571,66.2213306 40.2995729,66.76 C40.6835748,67.2986694 40.8755729,68.0693283 40.8755729,69.072 L40.8755729,74 L39.0355729,74 L39.0355729,69.312 C39.0355729,68.6613301 38.9395738,68.202668 38.7475729,67.936 C38.5555719,67.669332 38.2409084,67.536 37.8035729,67.536 C37.4622378,67.536 37.1609075,67.6186658 36.8995729,67.784 C36.6382382,67.9493342 36.3422412,68.1919984 36.0115729,68.512 L36.0115729,74 L34.1715729,74 L34.1715729,66.144 L35.6915729,66.144 L35.8195729,67.2 L35.8835729,67.2 C36.2355746,66.858665 36.6169042,66.5653346 37.0275729,66.32 C37.4382416,66.0746654 37.9155702,65.952 38.4595729,65.952 Z M143.179573,62.704 L143.179573,65.616 L143.115573,67.136 C143.446241,66.8266651 143.811571,66.5520012 144.211573,66.312 C144.611575,66.0719988 145.08357,65.952 145.627573,65.952 C146.470244,65.952 147.083571,66.2213306 147.467573,66.76 C147.851575,67.2986694 148.043573,68.0693283 148.043573,69.072 L148.043573,74 L146.203573,74 L146.203573,69.312 C146.203573,68.6613301 146.107574,68.202668 145.915573,67.936 C145.723572,67.669332 145.408908,67.536 144.971573,67.536 C144.630238,67.536 144.328908,67.6186658 144.067573,67.784 C143.806238,67.9493342 143.510241,68.1919984 143.179573,68.512 L143.179573,74 L141.339573,74 L141.339573,62.704 L143.179573,62.704 Z M127.691573,65.952 C128.534244,65.952 129.147571,66.2213306 129.531573,66.76 C129.915575,67.2986694 130.107573,68.0693283 130.107573,69.072 L130.107573,74 L128.267573,74 L128.267573,69.312 C128.267573,68.6613301 128.171574,68.202668 127.979573,67.936 C127.787572,67.669332 127.472908,67.536 127.035573,67.536 C126.694238,67.536 126.392908,67.6186658 126.131573,67.784 C125.870238,67.9493342 125.574241,68.1919984 125.243573,68.512 L125.243573,74 L123.403573,74 L123.403573,66.144 L124.923573,66.144 L125.051573,67.2 L125.115573,67.2 C125.467575,66.858665 125.848904,66.5653346 126.259573,66.32 C126.670242,66.0746654 127.14757,65.952 127.691573,65.952 Z M91.3235729,66.144 L91.3235729,74 L89.4835729,74 L89.4835729,66.144 L91.3235729,66.144 Z M172.443573,62.704 L172.443573,65.616 L172.379573,67.136 C172.710241,66.8266651 173.075571,66.5520012 173.475573,66.312 C173.875575,66.0719988 174.34757,65.952 174.891573,65.952 C175.734244,65.952 176.347571,66.2213306 176.731573,66.76 C177.115575,67.2986694 177.307573,68.0693283 177.307573,69.072 L177.307573,74 L175.467573,74 L175.467573,69.312 C175.467573,68.6613301 175.371574,68.202668 175.179573,67.936 C174.987572,67.669332 174.672908,67.536 174.235573,67.536 C173.894238,67.536 173.592908,67.6186658 173.331573,67.784 C173.070238,67.9493342 172.774241,68.1919984 172.443573,68.512 L172.443573,74 L170.603573,74 L170.603573,62.704 L172.443573,62.704 Z M106.747573,65.952 C107.590244,65.952 108.203571,66.2213306 108.587573,66.76 C108.971575,67.2986694 109.163573,68.0693283 109.163573,69.072 L109.163573,74 L107.323573,74 L107.323573,69.312 C107.323573,68.6613301 107.227574,68.202668 107.035573,67.936 C106.843572,67.669332 106.528908,67.536 106.091573,67.536 C105.750238,67.536 105.448908,67.6186658 105.187573,67.784 C104.926238,67.9493342 104.630241,68.1919984 104.299573,68.512 L104.299573,74 L102.459573,74 L102.459573,66.144 L103.979573,66.144 L104.107573,67.2 L104.171573,67.2 C104.523575,66.858665 104.904904,66.5653346 105.315573,66.32 C105.726242,66.0746654 106.20357,65.952 106.747573,65.952 Z M192.603573,65.952 C193.446244,65.952 194.059571,66.2213306 194.443573,66.76 C194.827575,67.2986694 195.019573,68.0693283 195.019573,69.072 L195.019573,74 L193.179573,74 L193.179573,69.312 C193.179573,68.6613301 193.083574,68.202668 192.891573,67.936 C192.699572,67.669332 192.384908,67.536 191.947573,67.536 C191.606238,67.536 191.304908,67.6186658 191.043573,67.784 C190.782238,67.9493342 190.486241,68.1919984 190.155573,68.512 L190.155573,74 L188.315573,74 L188.315573,66.144 L189.835573,66.144 L189.963573,67.2 L190.027573,67.2 C190.379575,66.858665 190.760904,66.5653346 191.171573,66.32 C191.582242,66.0746654 192.05957,65.952 192.603573,65.952 Z M79.9155729,70.128 C79.3822369,70.1920003 78.9342414,70.2773328 78.5715729,70.384 C78.2089044,70.4906672 77.915574,70.610666 77.6915729,70.744 C77.4675718,70.877334 77.3075734,71.0293325 77.2115729,71.2 C77.1155724,71.3706675 77.0675729,71.551999 77.0675729,71.744 C77.0675729,72.0960018 77.1742385,72.3519992 77.3875729,72.512 C77.6009073,72.6720008 77.8729046,72.752 78.2035729,72.752 C78.5235745,72.752 78.8142382,72.6773341 79.0755729,72.528 C79.3369075,72.3786659 79.6169047,72.1653347 79.9155729,71.888 L79.9155729,70.128 Z M117.835573,67.456 C117.25957,67.456 116.808908,67.693331 116.483573,68.168 C116.158238,68.642669 115.995573,69.279996 115.995573,70.08 C115.995573,70.8693373 116.158238,71.501331 116.483573,71.976 C116.808908,72.450669 117.25957,72.688 117.835573,72.688 C118.411576,72.688 118.864905,72.450669 119.195573,71.976 C119.526241,71.501331 119.691573,70.8693373 119.691573,70.08 C119.691573,69.279996 119.526241,68.642669 119.195573,68.168 C118.864905,67.693331 118.411576,67.456 117.835573,67.456 Z M62.9075729,67.456 C62.33157,67.456 61.8809078,67.693331 61.5555729,68.168 C61.2302379,68.642669 61.0675729,69.279996 61.0675729,70.08 C61.0675729,70.8693373 61.2302379,71.501331 61.5555729,71.976 C61.8809078,72.450669 62.33157,72.688 62.9075729,72.688 C63.4835758,72.688 63.9369046,72.450669 64.2675729,71.976 C64.5982412,71.501331 64.7635729,70.8693373 64.7635729,70.08 C64.7635729,69.279996 64.5982412,68.642669 64.2675729,68.168 C63.9369046,67.693331 63.4835758,67.456 62.9075729,67.456 Z M182.747573,67.456 C182.17157,67.456 181.720908,67.693331 181.395573,68.168 C181.070238,68.642669 180.907573,69.279996 180.907573,70.08 C180.907573,70.8693373 181.070238,71.501331 181.395573,71.976 C181.720908,72.450669 182.17157,72.688 182.747573,72.688 C183.323576,72.688 183.776905,72.450669 184.107573,71.976 C184.438241,71.501331 184.603573,70.8693373 184.603573,70.08 C184.603573,69.279996 184.438241,68.642669 184.107573,68.168 C183.776905,67.693331 183.323576,67.456 182.747573,67.456 Z M96.8915729,67.456 C96.31557,67.456 95.8649078,67.693331 95.5395729,68.168 C95.2142379,68.642669 95.0515729,69.279996 95.0515729,70.08 C95.0515729,70.8693373 95.2142379,71.501331 95.5395729,71.976 C95.8649078,72.450669 96.31557,72.688 96.8915729,72.688 C97.4675758,72.688 97.9209046,72.450669 98.2515729,71.976 C98.5822412,71.501331 98.7475729,70.8693373 98.7475729,70.08 C98.7475729,69.279996 98.5822412,68.642669 98.2515729,68.168 C97.9209046,67.693331 97.4675758,67.456 96.8915729,67.456 Z M165.147573,67.472 C164.592903,67.472 164.016909,67.7653304 163.419573,68.352 L163.419573,72.016 C163.707574,72.2613346 163.984905,72.4319995 164.251573,72.528 C164.518241,72.6240005 164.768905,72.672 165.003573,72.672 C165.526242,72.672 165.963571,72.4453356 166.315573,71.992 C166.667575,71.5386644 166.843573,70.8640045 166.843573,69.968 C166.843573,69.1786627 166.710241,68.5653355 166.443573,68.128 C166.176905,67.6906645 165.744909,67.472 165.147573,67.472 Z M46.3795729,67.472 C45.8675703,67.472 45.4355746,67.6959978 45.0835729,68.144 C44.7315711,68.5920022 44.5555729,69.2319958 44.5555729,70.064 C44.5555729,70.9173376 44.7075714,71.5653311 45.0115729,72.008 C45.3155744,72.4506689 45.75557,72.672 46.3315729,72.672 C46.9182425,72.672 47.4675703,72.3786696 47.9795729,71.792 L47.9795729,68.128 C47.7022382,67.8826654 47.4329075,67.7120005 47.1715729,67.616 C46.9102382,67.5199995 46.6462409,67.472 46.3795729,67.472 Z M200.427573,67.376 C199.958237,67.376 199.547575,67.5413317 199.195573,67.872 C198.843571,68.2026683 198.624907,68.6879968 198.539573,69.328 L198.539573,69.328 L202.027573,69.328 C202.027573,68.719997 201.896908,68.2426684 201.635573,67.896 C201.374238,67.5493316 200.971576,67.376 200.427573,67.376 Z M153.419573,67.376 C152.950237,67.376 152.539575,67.5413317 152.187573,67.872 C151.835571,68.2026683 151.616907,68.6879968 151.531573,69.328 L155.019573,69.328 C155.019573,68.719997 154.888908,68.2426684 154.627573,67.896 C154.366238,67.5493316 153.963576,67.376 153.419573,67.376 Z M29.2115729,67.376 C28.7422372,67.376 28.3315746,67.5413317 27.9795729,67.872 C27.6275711,68.2026683 27.4089066,68.6879968 27.3235729,69.328 L30.8115729,69.328 C30.8115729,68.719997 30.6809075,68.2426684 30.4195729,67.896 C30.1582382,67.5493316 29.7555756,67.376 29.2115729,67.376 Z M90.4115729,62.672 C90.7422412,62.672 91.0142385,62.7706657 91.2275729,62.968 C91.4409073,63.1653343 91.5475729,63.4186651 91.5475729,63.728 C91.5475729,64.0373349 91.4409073,64.287999 91.2275729,64.48 C91.0142385,64.672 90.7422412,64.768 90.4115729,64.768 C90.0809046,64.768 89.8089073,64.672 89.5955729,64.48 C89.3822385,64.287999 89.2755729,64.0373349 89.2755729,63.728 C89.2755729,63.4186651 89.3822385,63.1653343 89.5955729,62.968 C89.8089073,62.7706657 90.0809046,62.672 90.4115729,62.672 Z" id="Combined-Shape" fill="#0079FF" fill-rule="nonzero"></path>
                <path d="M163.835573,44.176 C164.176908,44.176 164.446239,44.3146653 164.643573,44.592 C164.840907,44.8693347 164.939573,45.2479976 164.939573,45.728 C164.939573,46.4213368 164.752908,47.0239974 164.379573,47.536 C164.006238,48.0480026 163.494243,48.4426653 162.843573,48.72 L162.523573,47.952 C162.982242,47.7493323 163.339572,47.4800017 163.595573,47.144 C163.851574,46.8079983 163.97424,46.4266688 163.963573,46 C163.931573,46.0106667 163.87824,46.016 163.803573,46.016 C163.547572,46.016 163.32624,45.9386674 163.139573,45.784 C162.952905,45.6293326 162.859573,45.4026682 162.859573,45.104 C162.859573,44.8159986 162.955572,44.5893342 163.147573,44.424 C163.339574,44.2586658 163.568905,44.176 163.835573,44.176 Z M133.691573,35.6 C134.139575,35.6 134.550238,35.6586661 134.923573,35.776 C135.296908,35.8933339 135.619572,36.0613322 135.891573,36.28 C136.163574,36.4986678 136.374239,36.7679984 136.523573,37.088 C136.672907,37.4080016 136.747573,37.7759979 136.747573,38.192 C136.747573,38.8106698 136.576908,39.3173314 136.235573,39.712 C135.894238,40.1066686 135.446242,40.4106656 134.891573,40.624 L134.891573,40.688 C135.200908,40.762667 135.488905,40.8719993 135.755573,41.016 C136.022241,41.1600007 136.256905,41.3413322 136.459573,41.56 C136.662241,41.7786678 136.819572,42.0319986 136.931573,42.32 C137.043573,42.6080014 137.099573,42.9279982 137.099573,43.28 C137.099573,43.7280022 137.011574,44.1333315 136.835573,44.496 C136.659572,44.8586685 136.419574,45.1653321 136.115573,45.416 C135.811571,45.6666679 135.456908,45.858666 135.051573,45.992 C134.646238,46.125334 134.208909,46.192 133.739573,46.192 C133.334238,46.192 132.963575,46.1520004 132.627573,46.072 C132.291571,45.9919996 131.984908,45.885334 131.707573,45.752 C131.430238,45.618666 131.182241,45.4666675 130.963573,45.296 C130.744905,45.1253325 130.55024,44.944001 130.379573,44.752 L131.051573,43.888 C131.360908,44.2080016 131.720904,44.4906654 132.131573,44.736 C132.542242,44.9813346 133.05157,45.104 133.659573,45.104 C134.278243,45.104 134.784904,44.9360017 135.179573,44.6 C135.574242,44.2639983 135.771573,43.8080029 135.771573,43.232 C135.771573,42.9333318 135.715573,42.6586679 135.603573,42.408 C135.491572,42.1573321 135.307574,41.9413342 135.051573,41.76 C134.795572,41.5786658 134.459575,41.4400005 134.043573,41.344 C133.627571,41.2479995 133.115576,41.2 132.507573,41.2 L132.507573,40.192 C133.051576,40.192 133.507571,40.1440005 133.875573,40.048 C134.243575,39.9519995 134.542238,39.8186675 134.771573,39.648 C135.000907,39.4773325 135.163572,39.2746678 135.259573,39.04 C135.355573,38.8053322 135.403573,38.554668 135.403573,38.288 C135.403573,37.7866642 135.246241,37.3920014 134.931573,37.104 C134.616905,36.8159986 134.187576,36.672 133.643573,36.672 C133.216904,36.672 132.824908,36.767999 132.467573,36.96 C132.110238,37.152001 131.776908,37.4026651 131.467573,37.712 L130.763573,36.88 C131.158242,36.5066648 131.592904,36.2000012 132.067573,35.96 C132.542242,35.7199988 133.08357,35.6 133.691573,35.6 Z M152.539573,35.792 L152.539573,36.928 L148.587573,36.928 L148.315573,39.952 C148.560907,39.8239994 148.806238,39.722667 149.051573,39.648 C149.296907,39.573333 149.574238,39.536 149.883573,39.536 C150.320908,39.536 150.731571,39.5999994 151.115573,39.728 C151.499575,39.8560006 151.835571,40.0506654 152.123573,40.312 C152.411574,40.5733346 152.638239,40.903998 152.803573,41.304 C152.968907,41.704002 153.051573,42.1813306 153.051573,42.736 C153.051573,43.2906694 152.955574,43.7813312 152.763573,44.208 C152.571572,44.6346688 152.315574,44.9946652 151.995573,45.288 C151.675571,45.5813348 151.310242,45.8053326 150.899573,45.96 C150.488904,46.1146674 150.059575,46.192 149.611573,46.192 C149.206238,46.192 148.835575,46.1520004 148.499573,46.072 C148.163571,45.9919996 147.859574,45.8880006 147.587573,45.76 C147.315572,45.6319994 147.070241,45.4853342 146.851573,45.32 C146.632905,45.1546658 146.43824,44.9813342 146.267573,44.8 L146.907573,43.936 C147.206241,44.2453349 147.560904,44.5173322 147.971573,44.752 C148.382242,44.9866678 148.886237,45.104 149.483573,45.104 C149.792908,45.104 150.083572,45.0480006 150.355573,44.936 C150.627574,44.8239994 150.864905,44.6666677 151.067573,44.464 C151.270241,44.2613323 151.430239,44.0160014 151.547573,43.728 C151.664907,43.4399986 151.723573,43.1200018 151.723573,42.768 C151.723573,42.0639965 151.526242,41.5146686 151.131573,41.12 C150.736904,40.7253314 150.20891,40.528 149.547573,40.528 C149.195571,40.528 148.894241,40.5813328 148.643573,40.688 C148.392905,40.7946672 148.112908,40.9493323 147.803573,41.152 L147.099573,40.704 L147.435573,35.792 L152.539573,35.792 Z M144.587573,35.792 L144.587573,36.928 L140.635573,36.928 L140.363573,39.952 C140.608907,39.8239994 140.854238,39.722667 141.099573,39.648 C141.344907,39.573333 141.622238,39.536 141.931573,39.536 C142.368908,39.536 142.779571,39.5999994 143.163573,39.728 C143.547575,39.8560006 143.883571,40.0506654 144.171573,40.312 C144.459574,40.5733346 144.686239,40.903998 144.851573,41.304 C145.016907,41.704002 145.099573,42.1813306 145.099573,42.736 C145.099573,43.2906694 145.003574,43.7813312 144.811573,44.208 C144.619572,44.6346688 144.363574,44.9946652 144.043573,45.288 C143.723571,45.5813348 143.358242,45.8053326 142.947573,45.96 C142.536904,46.1146674 142.107575,46.192 141.659573,46.192 C141.254238,46.192 140.883575,46.1520004 140.547573,46.072 C140.211571,45.9919996 139.907574,45.8880006 139.635573,45.76 C139.363572,45.6319994 139.118241,45.4853342 138.899573,45.32 C138.680905,45.1546658 138.48624,44.9813342 138.315573,44.8 L138.955573,43.936 C139.254241,44.2453349 139.608904,44.5173322 140.019573,44.752 C140.430242,44.9866678 140.934237,45.104 141.531573,45.104 C141.840908,45.104 142.131572,45.0480006 142.403573,44.936 C142.675574,44.8239994 142.912905,44.6666677 143.115573,44.464 C143.318241,44.2613323 143.478239,44.0160014 143.595573,43.728 C143.712907,43.4399986 143.771573,43.1200018 143.771573,42.768 C143.771573,42.0639965 143.574242,41.5146686 143.179573,41.12 C142.784904,40.7253314 142.25691,40.528 141.595573,40.528 C141.243571,40.528 140.942241,40.5813328 140.691573,40.688 C140.440905,40.7946672 140.160908,40.9493323 139.851573,41.152 L139.147573,40.704 L139.483573,35.792 L144.587573,35.792 Z M126.059573,35.6 C126.507575,35.6 126.907571,35.666666 127.259573,35.8 C127.611575,35.933334 127.912905,36.1199988 128.163573,36.36 C128.414241,36.6 128.606239,36.8879983 128.739573,37.224 C128.872907,37.5600017 128.939573,37.9253314 128.939573,38.32 C128.939573,38.586668 128.89424,38.8426654 128.803573,39.088 C128.712906,39.3333346 128.600907,39.5626656 128.467573,39.776 C128.334239,39.9893344 128.184907,40.1813325 128.019573,40.352 C127.854239,40.5226675 127.691574,40.6666661 127.531573,40.784 L127.531573,40.848 C127.755574,40.9760006 127.974238,41.1226658 128.187573,41.288 C128.400907,41.4533342 128.590239,41.639999 128.755573,41.848 C128.920907,42.056001 129.054239,42.293332 129.155573,42.56 C129.256907,42.826668 129.307573,43.130665 129.307573,43.472 C129.307573,43.8560019 129.227574,44.2133317 129.067573,44.544 C128.907572,44.8746683 128.683574,45.1626654 128.395573,45.408 C128.107571,45.6533346 127.760908,45.8453326 127.355573,45.984 C126.950238,46.1226674 126.502242,46.192 126.011573,46.192 C125.53157,46.192 125.086242,46.1226674 124.675573,45.984 C124.264904,45.8453326 123.912908,45.6506679 123.619573,45.4 C123.326238,45.1493321 123.09424,44.853335 122.923573,44.512 C122.752905,44.170665 122.667573,43.7973354 122.667573,43.392 C122.667573,43.0613317 122.723572,42.7546681 122.835573,42.472 C122.947573,42.1893319 123.091572,41.9333345 123.267573,41.704 C123.443574,41.4746655 123.646238,41.2720009 123.875573,41.096 C124.104907,40.9199991 124.342238,40.7680006 124.587573,40.64 L124.587573,40.576 C124.214238,40.309332 123.883574,39.9866686 123.595573,39.608 C123.307571,39.2293314 123.163573,38.7680027 123.163573,38.224 C123.163573,37.8293314 123.238239,37.4720016 123.387573,37.152 C123.536907,36.8319984 123.739572,36.5573345 123.995573,36.328 C124.251574,36.0986655 124.555571,35.9200006 124.907573,35.792 C125.259575,35.6639994 125.643571,35.6 126.059573,35.6 Z M224.699573,35.6 C225.147575,35.6 225.547571,35.666666 225.899573,35.8 C226.251575,35.933334 226.552905,36.1199988 226.803573,36.36 C227.054241,36.6 227.246239,36.8879983 227.379573,37.224 C227.512907,37.5600017 227.579573,37.9253314 227.579573,38.32 C227.579573,38.586668 227.53424,38.8426654 227.443573,39.088 C227.352906,39.3333346 227.240907,39.5626656 227.107573,39.776 C226.974239,39.9893344 226.824907,40.1813325 226.659573,40.352 C226.494239,40.5226675 226.331574,40.6666661 226.171573,40.784 L226.171573,40.848 C226.395574,40.9760006 226.614238,41.1226658 226.827573,41.288 C227.040907,41.4533342 227.230239,41.639999 227.395573,41.848 C227.560907,42.056001 227.694239,42.293332 227.795573,42.56 C227.896907,42.826668 227.947573,43.130665 227.947573,43.472 C227.947573,43.8560019 227.867574,44.2133317 227.707573,44.544 C227.547572,44.8746683 227.323574,45.1626654 227.035573,45.408 C226.747571,45.6533346 226.400908,45.8453326 225.995573,45.984 C225.590238,46.1226674 225.142242,46.192 224.651573,46.192 C224.17157,46.192 223.726242,46.1226674 223.315573,45.984 C222.904904,45.8453326 222.552908,45.6506679 222.259573,45.4 C221.966238,45.1493321 221.73424,44.853335 221.563573,44.512 C221.392905,44.170665 221.307573,43.7973354 221.307573,43.392 C221.307573,43.0613317 221.363572,42.7546681 221.475573,42.472 C221.587573,42.1893319 221.731572,41.9333345 221.907573,41.704 C222.083574,41.4746655 222.286238,41.2720009 222.515573,41.096 C222.744907,40.9199991 222.982238,40.7680006 223.227573,40.64 L223.227573,40.576 C222.854238,40.309332 222.523574,39.9866686 222.235573,39.608 C221.947571,39.2293314 221.803573,38.7680027 221.803573,38.224 C221.803573,37.8293314 221.878239,37.4720016 222.027573,37.152 C222.176907,36.8319984 222.379572,36.5573345 222.635573,36.328 C222.891574,36.0986655 223.195571,35.9200006 223.547573,35.792 C223.899575,35.6639994 224.283571,35.6 224.699573,35.6 Z M160.491573,35.792 L160.491573,36.928 L156.539573,36.928 L156.267573,39.952 C156.512907,39.8239994 156.758238,39.722667 157.003573,39.648 C157.248907,39.573333 157.526238,39.536 157.835573,39.536 C158.272908,39.536 158.683571,39.5999994 159.067573,39.728 C159.451575,39.8560006 159.787571,40.0506654 160.075573,40.312 C160.363574,40.5733346 160.590239,40.903998 160.755573,41.304 C160.920907,41.704002 161.003573,42.1813306 161.003573,42.736 C161.003573,43.2906694 160.907574,43.7813312 160.715573,44.208 C160.523572,44.6346688 160.267574,44.9946652 159.947573,45.288 C159.627571,45.5813348 159.262242,45.8053326 158.851573,45.96 C158.440904,46.1146674 158.011575,46.192 157.563573,46.192 C157.158238,46.192 156.787575,46.1520004 156.451573,46.072 C156.115571,45.9919996 155.811574,45.8880006 155.539573,45.76 C155.267572,45.6319994 155.022241,45.4853342 154.803573,45.32 C154.584905,45.1546658 154.39024,44.9813342 154.219573,44.8 L154.859573,43.936 C155.158241,44.2453349 155.512904,44.5173322 155.923573,44.752 C156.334242,44.9866678 156.838237,45.104 157.435573,45.104 C157.744908,45.104 158.035572,45.0480006 158.307573,44.936 C158.579574,44.8239994 158.816905,44.6666677 159.019573,44.464 C159.222241,44.2613323 159.382239,44.0160014 159.499573,43.728 C159.616907,43.4399986 159.675573,43.1200018 159.675573,42.768 C159.675573,42.0639965 159.478242,41.5146686 159.083573,41.12 C158.688904,40.7253314 158.16091,40.528 157.499573,40.528 C157.147571,40.528 156.846241,40.5813328 156.595573,40.688 C156.344905,40.7946672 156.064908,40.9493323 155.755573,41.152 L155.051573,40.704 L155.387573,35.792 L160.491573,35.792 Z M118.043573,35.6 C119.067578,35.6 119.86757,36.0479955 120.443573,36.944 C121.019576,37.8400045 121.307573,39.1466581 121.307573,40.864 C121.307573,42.5813419 121.019576,43.8986621 120.443573,44.816 C119.86757,45.7333379 119.067578,46.192 118.043573,46.192 C117.008901,46.192 116.203576,45.7333379 115.627573,44.816 C115.05157,43.8986621 114.763573,42.5813419 114.763573,40.864 C114.763573,39.1466581 115.05157,37.8400045 115.627573,36.944 C116.203576,36.0479955 117.008901,35.6 118.043573,35.6 Z M193.499573,35.6 C194.054242,35.6 194.531571,35.703999 194.931573,35.912 C195.331575,36.120001 195.675571,36.3786651 195.963573,36.688 L195.227573,37.504 C195.014238,37.2586654 194.760908,37.0640007 194.467573,36.92 C194.174238,36.7759993 193.867574,36.704 193.547573,36.704 C193.195571,36.704 192.859574,36.7786659 192.539573,36.928 C192.219571,37.0773341 191.936907,37.322665 191.691573,37.664 C191.446238,38.005335 191.248907,38.4506639 191.099573,39 C190.950239,39.5493361 190.87024,40.2293293 190.859573,41.04 C191.179574,40.6453314 191.552904,40.3333345 191.979573,40.104 C192.406242,39.8746655 192.827571,39.76 193.243573,39.76 C194.128911,39.76 194.83557,40.0213307 195.363573,40.544 C195.891576,41.0666693 196.155573,41.8559947 196.155573,42.912 C196.155573,43.4026691 196.075574,43.847998 195.915573,44.248 C195.755572,44.648002 195.536908,44.9919986 195.259573,45.28 C194.982238,45.5680014 194.662241,45.7919992 194.299573,45.952 C193.936904,46.1120008 193.547575,46.192 193.131573,46.192 C192.630237,46.192 192.166242,46.0906677 191.739573,45.888 C191.312904,45.6853323 190.942241,45.3786687 190.627573,44.968 C190.312905,44.5573313 190.064907,44.0453364 189.883573,43.432 C189.702239,42.8186636 189.611573,42.1013374 189.611573,41.28 C189.611573,40.2559949 189.718238,39.3840036 189.931573,38.664 C190.144907,37.9439964 190.432904,37.3573356 190.795573,36.904 C191.158241,36.4506644 191.571571,36.120001 192.035573,35.912 C192.499575,35.703999 192.98757,35.6 193.499573,35.6 Z M112.075573,44.176 C112.331574,44.176 112.552905,44.2693324 112.739573,44.456 C112.92624,44.6426676 113.019573,44.8906651 113.019573,45.2 C113.019573,45.4880014 112.92624,45.7253324 112.739573,45.912 C112.552905,46.0986676 112.331574,46.192 112.075573,46.192 C111.808905,46.192 111.58224,46.0986676 111.395573,45.912 C111.208905,45.7253324 111.115573,45.4880014 111.115573,45.2 C111.115573,44.8906651 111.208905,44.6426676 111.395573,44.456 C111.58224,44.2693324 111.808905,44.176 112.075573,44.176 Z M100.843573,35.792 L100.843573,36.928 L96.8915729,36.928 L96.6195729,39.952 C96.8649074,39.8239994 97.1102383,39.722667 97.3555729,39.648 C97.6009074,39.573333 97.878238,39.536 98.1875729,39.536 C98.6249084,39.536 99.035571,39.5999994 99.4195729,39.728 C99.8035748,39.8560006 100.139571,40.0506654 100.427573,40.312 C100.715574,40.5733346 100.942239,40.903998 101.107573,41.304 C101.272907,41.704002 101.355573,42.1813306 101.355573,42.736 C101.355573,43.2906694 101.259574,43.7813312 101.067573,44.208 C100.875572,44.6346688 100.619574,44.9946652 100.299573,45.288 C99.9795713,45.5813348 99.6142416,45.8053326 99.2035729,45.96 C98.7929042,46.1146674 98.3635751,46.192 97.9155729,46.192 C97.5102375,46.192 97.1395746,46.1520004 96.8035729,46.072 C96.4675712,45.9919996 96.1635742,45.8880006 95.8915729,45.76 C95.6195715,45.6319994 95.3742406,45.4853342 95.1555729,45.32 C94.9369051,45.1546658 94.7422404,44.9813342 94.5715729,44.8 L95.2115729,43.936 C95.510241,44.2453349 95.8649042,44.5173322 96.2755729,44.752 C96.6862416,44.9866678 97.1902366,45.104 97.7875729,45.104 C98.0969078,45.104 98.3875715,45.0480006 98.6595729,44.936 C98.9315742,44.8239994 99.1689052,44.6666677 99.3715729,44.464 C99.5742406,44.2613323 99.734239,44.0160014 99.8515729,43.728 C99.9689068,43.4399986 100.027573,43.1200018 100.027573,42.768 C100.027573,42.0639965 99.8302415,41.5146686 99.4355729,41.12 C99.0409042,40.7253314 98.5129095,40.528 97.8515729,40.528 C97.4995711,40.528 97.1982408,40.5813328 96.9475729,40.688 C96.696905,40.7946672 96.4169078,40.9493323 96.1075729,41.152 L95.4035729,40.704 L95.7395729,35.792 L100.843573,35.792 Z M105.771573,35.6 C106.272909,35.6 106.739571,35.7013323 107.171573,35.904 C107.603575,36.1066677 107.976905,36.4133313 108.291573,36.824 C108.606241,37.2346687 108.851572,37.7466636 109.027573,38.36 C109.203574,38.9733364 109.291573,39.6906626 109.291573,40.512 C109.291573,41.5360051 109.184907,42.4079964 108.971573,43.128 C108.758238,43.8480036 108.470241,44.4346644 108.107573,44.888 C107.744904,45.3413356 107.331575,45.671999 106.867573,45.88 C106.403571,46.088001 105.915575,46.192 105.403573,46.192 C104.85957,46.192 104.382242,46.0906677 103.971573,45.888 C103.560904,45.6853323 103.216908,45.4293349 102.939573,45.12 L103.675573,44.288 C103.888907,44.5333346 104.142238,44.7306659 104.435573,44.88 C104.728908,45.0293341 105.035571,45.104 105.355573,45.104 C105.718241,45.104 106.059571,45.0293341 106.379573,44.88 C106.699574,44.7306659 106.982238,44.4826684 107.227573,44.136 C107.472907,43.7893316 107.670239,43.3386694 107.819573,42.784 C107.968907,42.2293306 108.048906,41.5413374 108.059573,40.72 C107.739571,41.1253354 107.366242,41.4453322 106.939573,41.68 C106.512904,41.9146678 106.086242,42.032 105.659573,42.032 C104.774235,42.032 104.070242,41.7706693 103.547573,41.248 C103.024904,40.7253307 102.763573,39.9360053 102.763573,38.88 C102.763573,38.3893309 102.843572,37.944002 103.003573,37.544 C103.163574,37.143998 103.379572,36.8000014 103.651573,36.512 C103.923574,36.2239986 104.243571,36.0000008 104.611573,35.84 C104.979575,35.6799992 105.366238,35.6 105.771573,35.6 Z M186.859573,44.176 C187.115574,44.176 187.336905,44.2693324 187.523573,44.456 C187.71024,44.6426676 187.803573,44.8906651 187.803573,45.2 C187.803573,45.4880014 187.71024,45.7253324 187.523573,45.912 C187.336905,46.0986676 187.115574,46.192 186.859573,46.192 C186.592905,46.192 186.36624,46.0986676 186.179573,45.912 C185.992905,45.7253324 185.899573,45.4880014 185.899573,45.2 C185.899573,44.8906651 185.992905,44.6426676 186.179573,44.456 C186.36624,44.2693324 186.592905,44.176 186.859573,44.176 Z M234.715573,35.792 L234.715573,42.128 L236.107573,42.128 L236.107573,43.184 L234.715573,43.184 L234.715573,46 L233.467573,46 L233.467573,43.184 L228.875573,43.184 L228.875573,42.32 L233.243573,35.792 L234.715573,35.792 Z M180.571573,35.6 C181.520911,35.6 182.26757,35.8746639 182.811573,36.424 C183.355576,36.9733361 183.627573,37.7013288 183.627573,38.608 C183.627573,39.0880024 183.523574,39.5706642 183.315573,40.056 C183.107572,40.5413358 182.819575,41.0426641 182.451573,41.56 C182.083571,42.0773359 181.646242,42.6159972 181.139573,43.176 L180.507253,43.8646403 C180.178933,44.2172795 179.832375,44.5823981 179.467573,44.96 L180.331573,44.896 C180.630241,44.8746666 180.912905,44.864 181.179573,44.864 L184.139573,44.864 L184.139573,46 L177.547573,46 L177.547573,45.216 L178.635573,44.1199997 C178.976906,43.7733339 179.296905,43.4453349 179.595573,43.136 C180.192909,42.5173302 180.694238,41.9440026 181.099573,41.416 C181.504908,40.8879974 181.814238,40.4026689 182.027573,39.96 C182.240907,39.5173311 182.347573,39.0880021 182.347573,38.672 C182.347573,38.0853304 182.187574,37.6053352 181.867573,37.232 C181.547571,36.8586648 181.062243,36.672 180.411573,36.672 C179.984904,36.672 179.590241,36.7919988 179.227573,37.032 C178.864904,37.2720012 178.534241,37.562665 178.235573,37.904 L177.483573,37.152 C177.910242,36.6826643 178.36357,36.3066681 178.843573,36.024 C179.323575,35.7413319 179.89957,35.6 180.571573,35.6 Z M172.619573,35.6 C173.568911,35.6 174.31557,35.8746639 174.859573,36.424 C175.403576,36.9733361 175.675573,37.7013288 175.675573,38.608 C175.675573,39.0880024 175.571574,39.5706642 175.363573,40.056 C175.155572,40.5413358 174.867575,41.0426641 174.499573,41.56 C174.131571,42.0773359 173.694242,42.6159972 173.187573,43.176 L172.555253,43.8646403 C172.226933,44.2172795 171.880375,44.5823981 171.515573,44.96 L172.379573,44.896 C172.678241,44.8746666 172.960905,44.864 173.227573,44.864 L176.187573,44.864 L176.187573,46 L169.595573,46 L169.595573,45.216 L170.683573,44.1199997 C171.024906,43.7733339 171.344905,43.4453349 171.643573,43.136 C172.240909,42.5173302 172.742238,41.9440026 173.147573,41.416 C173.552908,40.8879974 173.862238,40.4026689 174.075573,39.96 C174.288907,39.5173311 174.395573,39.0880021 174.395573,38.672 C174.395573,38.0853304 174.235574,37.6053352 173.915573,37.232 C173.595571,36.8586648 173.110243,36.672 172.459573,36.672 C172.032904,36.672 171.638241,36.7919988 171.275573,37.032 C170.912904,37.2720012 170.582241,37.562665 170.283573,37.904 L169.531573,37.152 C169.958242,36.6826643 170.41157,36.3066681 170.891573,36.024 C171.371575,35.7413319 171.94757,35.6 172.619573,35.6 Z M201.707573,35.792 L201.707573,44.912 L203.819573,44.912 L203.819573,46 L198.059573,46 L198.059573,44.912 L200.395573,44.912 L200.395573,37.392 L198.539573,37.392 L198.539573,36.544 C199.008909,36.4586662 199.416904,36.3546673 199.763573,36.232 C200.110241,36.1093327 200.422238,35.9626675 200.699573,35.792 L201.707573,35.792 Z M212.027573,35.792 L212.027573,36.608 C211.41957,37.3760038 210.926241,38.1119965 210.547573,38.816 C210.168904,39.5200035 209.867574,40.2373297 209.643573,40.968 C209.419572,41.6986703 209.256907,42.4719959 209.155573,43.288 C209.054239,44.1040041 208.98224,45.007995 208.939573,46 L207.579573,46 C207.62224,45.0399952 207.707572,44.160004 207.835573,43.36 C207.963574,42.559996 208.142238,41.8000036 208.371573,41.08 C208.600907,40.3599964 208.894238,39.6640034 209.251573,38.992 C209.608908,38.3199966 210.038237,37.6320035 210.539573,36.928 L205.451573,36.928 L205.451573,35.792 L212.027573,35.792 Z M217.611573,35.792 L217.611573,44.912 L219.723573,44.912 L219.723573,46 L213.963573,46 L213.963573,44.912 L216.299573,44.912 L216.299573,37.392 L214.443573,37.392 L214.443573,36.544 C214.912909,36.4586662 215.320904,36.3546673 215.667573,36.232 C216.014241,36.1093327 216.326238,35.9626675 216.603573,35.792 L217.611573,35.792 Z M125.275573,41.04 C124.870238,41.3173347 124.531574,41.6399982 124.259573,42.008 C123.987572,42.3760018 123.851573,42.7946643 123.851573,43.264 C123.851573,43.5520014 123.907572,43.8133322 124.019573,44.048 C124.131573,44.2826678 124.286239,44.4879991 124.483573,44.664 C124.680907,44.8400009 124.912905,44.9759995 125.179573,45.072 C125.446241,45.1680005 125.734238,45.216 126.043573,45.216 C126.640909,45.216 127.123571,45.0506683 127.491573,44.72 C127.859575,44.3893317 128.043573,43.957336 128.043573,43.424 C128.043573,43.0933317 127.968907,42.8106678 127.819573,42.576 C127.670239,42.3413322 127.467574,42.1360009 127.211573,41.96 C126.955572,41.7839991 126.659575,41.6240007 126.323573,41.48 L125.633796,41.1884446 C125.51587,41.1392595 125.396462,41.089778 125.275573,41.04 Z M223.915573,41.04 C223.510238,41.3173347 223.171574,41.6399982 222.899573,42.008 C222.627572,42.3760018 222.491573,42.7946643 222.491573,43.264 C222.491573,43.5520014 222.547572,43.8133322 222.659573,44.048 C222.771573,44.2826678 222.926239,44.4879991 223.123573,44.664 C223.320907,44.8400009 223.552905,44.9759995 223.819573,45.072 C224.086241,45.1680005 224.374238,45.216 224.683573,45.216 C225.280909,45.216 225.763571,45.0506683 226.131573,44.72 C226.499575,44.3893317 226.683573,43.957336 226.683573,43.424 C226.683573,43.0933317 226.608907,42.8106678 226.459573,42.576 C226.310239,42.3413322 226.107574,42.1360009 225.851573,41.96 C225.595572,41.7839991 225.299575,41.6240007 224.963573,41.48 L224.273796,41.1884446 C224.15587,41.1392595 224.036462,41.089778 223.915573,41.04 Z M193.019573,40.752 C192.688905,40.752 192.331575,40.855999 191.947573,41.064 C191.563571,41.272001 191.211574,41.6159976 190.891573,42.096 C190.976907,43.0986717 191.208904,43.8586641 191.587573,44.376 C191.966241,44.8933359 192.480903,45.152 193.131573,45.152 C193.387574,45.152 193.622238,45.0986672 193.835573,44.992 C194.048907,44.8853328 194.235572,44.7333343 194.395573,44.536 C194.555574,44.3386657 194.680906,44.1040014 194.771573,43.832 C194.86224,43.5599986 194.907573,43.253335 194.907573,42.912 C194.907573,42.2399966 194.752908,41.7120019 194.443573,41.328 C194.134238,40.9439981 193.659576,40.752 193.019573,40.752 Z M118.043573,36.656 C117.744905,36.656 117.472907,36.7359992 117.227573,36.896 C116.982238,37.0560008 116.771574,37.3039983 116.595573,37.64 C116.419572,37.9760017 116.283573,38.410664 116.187573,38.944 C116.091572,39.477336 116.043573,40.1173296 116.043573,40.864 C116.043573,42.3573408 116.227571,43.4426633 116.595573,44.12 C116.963575,44.7973367 117.446237,45.136 118.043573,45.136 C118.342241,45.136 118.611572,45.0533342 118.851573,44.888 C119.091574,44.7226658 119.299572,44.4666684 119.475573,44.12 C119.651574,43.7733316 119.787572,43.3306694 119.883573,42.792 C119.979573,42.2533306 120.027573,41.6106704 120.027573,40.864 C120.027573,40.1173296 119.979573,39.477336 119.883573,38.944 C119.787572,38.410664 119.651574,37.9760017 119.475573,37.64 C119.299572,37.3039983 119.091574,37.0560008 118.851573,36.896 C118.611572,36.7359992 118.342241,36.656 118.043573,36.656 Z M233.547573,37.2 L233.483573,37.2 C233.355572,37.4453346 233.22224,37.6853322 233.083573,37.92 L233.083573,37.92 L232.651573,38.64 L230.267573,42.128 L233.467573,42.128 L233.467573,39.168 C233.467573,38.8906653 233.475573,38.5626686 233.491573,38.184 L233.491573,38.184 L233.517573,37.6539998 L233.547573,37.2 Z M105.771573,36.64 C105.526238,36.64 105.294241,36.6933328 105.075573,36.8 C104.856905,36.9066672 104.667574,37.0586657 104.507573,37.256 C104.347572,37.4533343 104.22224,37.6906653 104.131573,37.968 C104.040906,38.2453347 103.995573,38.5493317 103.995573,38.88 C103.995573,39.5520034 104.150238,40.0799981 104.459573,40.464 C104.768908,40.8480019 105.24357,41.04 105.883573,41.04 C106.224908,41.04 106.584904,40.9333344 106.963573,40.72 C107.342241,40.5066656 107.696905,40.1600024 108.027573,39.68 C107.942239,38.6773283 107.707575,37.9200026 107.323573,37.408 C106.939571,36.8959974 106.422243,36.64 105.771573,36.64 Z M126.027573,36.576 C125.54757,36.576 125.152908,36.7253318 124.843573,37.024 C124.534238,37.3226682 124.379573,37.7226642 124.379573,38.224 C124.379573,38.5333349 124.443572,38.7973322 124.571573,39.016 C124.699574,39.2346678 124.872905,39.4293325 125.091573,39.6 C125.310241,39.7706675 125.560905,39.922666 125.843573,40.056 C126.126241,40.189334 126.422238,40.3146661 126.731573,40.432 C127.072908,40.1226651 127.336905,39.797335 127.523573,39.456 C127.71024,39.114665 127.803573,38.7573352 127.803573,38.384 C127.803573,37.8719974 127.648908,37.4426684 127.339573,37.096 C127.030238,36.7493316 126.592909,36.576 126.027573,36.576 Z M224.667573,36.576 C224.18757,36.576 223.792908,36.7253318 223.483573,37.024 C223.174238,37.3226682 223.019573,37.7226642 223.019573,38.224 C223.019573,38.5333349 223.083572,38.7973322 223.211573,39.016 C223.339574,39.2346678 223.512905,39.4293325 223.731573,39.6 C223.950241,39.7706675 224.200905,39.922666 224.483573,40.056 C224.766241,40.189334 225.062238,40.3146661 225.371573,40.432 C225.712908,40.1226651 225.976905,39.797335 226.163573,39.456 C226.35024,39.114665 226.443573,38.7573352 226.443573,38.384 C226.443573,37.8719974 226.288908,37.4426684 225.979573,37.096 C225.670238,36.7493316 225.232909,36.576 224.667573,36.576 Z" id="Combined-Shape" fill="#333333" fill-rule="nonzero"></path>
                <path d="M95.2515729,28 L95.2515729,20.128 L96.2475729,20.128 L96.2475729,27.148 L99.6915729,27.148 L99.6915729,28 L95.2515729,28 Z M103.111573,28.144 C102.751571,28.144 102.409574,28.0760007 102.085573,27.94 C101.761571,27.8039993 101.475574,27.6060013 101.227573,27.346 C100.979572,27.0859987 100.781574,26.7660019 100.633573,26.386 C100.485572,26.0059981 100.411573,25.5760024 100.411573,25.096 C100.411573,24.6079976 100.485572,24.1740019 100.633573,23.794 C100.781574,23.4139981 100.979572,23.0920013 101.227573,22.828 C101.475574,22.5639987 101.761571,22.3640007 102.085573,22.228 C102.409574,22.0919993 102.751571,22.024 103.111573,22.024 C103.471575,22.024 103.813571,22.0919993 104.137573,22.228 C104.461574,22.3640007 104.747572,22.5639987 104.995573,22.828 C105.243574,23.0920013 105.441572,23.4139981 105.589573,23.794 C105.737574,24.1740019 105.811573,24.6079976 105.811573,25.096 C105.811573,25.5760024 105.737574,26.0059981 105.589573,26.386 C105.441572,26.7660019 105.243574,27.0859987 104.995573,27.346 C104.747572,27.6060013 104.461574,27.8039993 104.137573,27.94 C103.813571,28.0760007 103.471575,28.144 103.111573,28.144 Z M103.111573,27.328 C103.359574,27.328 103.587572,27.2740005 103.795573,27.166 C104.003574,27.0579995 104.181572,26.906001 104.329573,26.71 C104.477574,26.513999 104.591572,26.2800014 104.671573,26.008 C104.751573,25.7359986 104.791573,25.4320017 104.791573,25.096 C104.791573,24.7599983 104.751573,24.4540014 104.671573,24.178 C104.591572,23.9019986 104.477574,23.664001 104.329573,23.464 C104.181572,23.263999 104.003574,23.1100005 103.795573,23.002 C103.587572,22.8939995 103.359574,22.84 103.111573,22.84 C102.863572,22.84 102.635574,22.8939995 102.427573,23.002 C102.219572,23.1100005 102.041574,23.263999 101.893573,23.464 C101.745572,23.664001 101.631573,23.9019986 101.551573,24.178 C101.471572,24.4540014 101.431573,24.7599983 101.431573,25.096 C101.431573,25.4320017 101.471572,25.7359986 101.551573,26.008 C101.631573,26.2800014 101.745572,26.513999 101.893573,26.71 C102.041574,26.906001 102.219572,27.0579995 102.427573,27.166 C102.635574,27.2740005 102.863572,27.328 103.111573,27.328 Z M109.651573,28.144 C109.267571,28.144 108.907575,28.0760007 108.571573,27.94 C108.235571,27.8039993 107.945574,27.6060013 107.701573,27.346 C107.457572,27.0859987 107.265574,26.7660019 107.125573,26.386 C106.985572,26.0059981 106.915573,25.5760024 106.915573,25.096 C106.915573,24.6079976 106.991572,24.1740019 107.143573,23.794 C107.295574,23.4139981 107.499572,23.0920013 107.755573,22.828 C108.011574,22.5639987 108.309571,22.3640007 108.649573,22.228 C108.989575,22.0919993 109.347571,22.024 109.723573,22.024 C110.107575,22.024 110.435572,22.0919993 110.707573,22.228 C110.979574,22.3640007 111.219572,22.524 111.427573,22.708 L110.923573,23.356 C110.755572,23.2039992 110.577574,23.0800005 110.389573,22.984 C110.201572,22.8879995 109.991574,22.84 109.759573,22.84 C109.495572,22.84 109.251574,22.8939995 109.027573,23.002 C108.803572,23.1100005 108.611574,23.263999 108.451573,23.464 C108.291572,23.664001 108.165573,23.9019986 108.073573,24.178 C107.981572,24.4540014 107.935573,24.7599983 107.935573,25.096 C107.935573,25.4320017 107.979572,25.7359986 108.067573,26.008 C108.155573,26.2800014 108.277572,26.513999 108.433573,26.71 C108.589574,26.906001 108.779572,27.0579995 109.003573,27.166 C109.227574,27.2740005 109.471572,27.328 109.735573,27.328 C110.007574,27.328 110.257572,27.2700006 110.485573,27.154 C110.713574,27.0379994 110.919572,26.9000008 111.103573,26.74 L111.535573,27.4 C111.271572,27.6320012 110.979574,27.8139993 110.659573,27.946 C110.339571,28.0780007 110.003575,28.144 109.651573,28.144 Z M114.043573,28.144 C113.55557,28.144 113.149574,28.0000014 112.825573,27.712 C112.501571,27.4239986 112.339573,27.0160026 112.339573,26.488 C112.339573,25.8479968 112.62357,25.3580017 113.191573,25.018 C113.759576,24.6779983 114.667567,24.4400007 115.915573,24.304 C115.915573,24.1199991 115.897573,23.9400009 115.861573,23.764 C115.825573,23.5879991 115.763573,23.4320007 115.675573,23.296 C115.587572,23.1599993 115.465574,23.0500004 115.309573,22.966 C115.153572,22.8819996 114.955574,22.84 114.715573,22.84 C114.379571,22.84 114.063574,22.9039994 113.767573,23.032 C113.471571,23.1600006 113.207574,23.3039992 112.975573,23.464 L112.591573,22.78 C112.863574,22.6039991 113.195571,22.4340008 113.587573,22.27 C113.979575,22.1059992 114.411571,22.024 114.883573,22.024 C115.595576,22.024 116.111571,22.2419978 116.431573,22.678 C116.751574,23.1140022 116.911573,23.6959964 116.911573,24.424 L116.911573,28 L116.095573,28 L116.011573,27.304 L115.975573,27.304 C115.695571,27.5360012 115.395574,27.7339992 115.075573,27.898 C114.755571,28.0620008 114.411575,28.144 114.043573,28.144 Z M114.331573,27.352 C114.611574,27.352 114.875572,27.2860007 115.123573,27.154 C115.371574,27.0219993 115.635571,26.8280013 115.915573,26.572 L115.915573,24.952 C115.42757,25.0160003 115.017575,25.0919996 114.685573,25.18 C114.353571,25.2680004 114.085574,25.3719994 113.881573,25.492 C113.677572,25.6120006 113.529573,25.7499992 113.437573,25.906 C113.345572,26.0620008 113.299573,26.2319991 113.299573,26.416 C113.299573,26.7520017 113.399572,26.9919993 113.599573,27.136 C113.799573,27.2800007 114.043571,27.352 114.331573,27.352 Z M120.415573,28.144 C120.103571,28.144 119.841574,28.0960005 119.629573,28 C119.417572,27.9039995 119.245574,27.7720008 119.113573,27.604 C118.981572,27.4359992 118.887573,27.2320012 118.831573,26.992 C118.775573,26.7519988 118.747573,26.4880014 118.747573,26.2 L118.747573,22.972 L117.883573,22.972 L117.883573,22.228 L118.795573,22.168 L118.915573,20.536 L119.743573,20.536 L119.743573,22.168 L121.315573,22.168 L121.315573,22.972 L119.743573,22.972 L119.743573,26.212 C119.743573,26.5720018 119.809572,26.849999 119.941573,27.046 C120.073574,27.242001 120.307571,27.34 120.643573,27.34 C120.747573,27.34 120.859572,27.3240002 120.979573,27.292 C121.099573,27.2599998 121.207572,27.2240002 121.303573,27.184 L121.495573,27.928 C121.335572,27.9840003 121.161574,28.0339998 120.973573,28.078 C120.785572,28.1220002 120.599574,28.144 120.415573,28.144 Z M122.635573,28 L122.635573,22.168 L123.619573,22.168 L123.619573,28 L122.635573,28 Z M123.139573,20.968 C122.947572,20.968 122.785574,20.9080006 122.653573,20.788 C122.521572,20.6679994 122.455573,20.5160009 122.455573,20.332 C122.455573,20.139999 122.521572,19.9860006 122.653573,19.87 C122.785574,19.7539994 122.947572,19.696 123.139573,19.696 C123.331574,19.696 123.493572,19.7539994 123.625573,19.87 C123.757574,19.9860006 123.823573,20.139999 123.823573,20.332 C123.823573,20.5160009 123.757574,20.6679994 123.625573,20.788 C123.493572,20.9080006 123.331574,20.968 123.139573,20.968 Z M127.855573,28.144 C127.495571,28.144 127.153574,28.0760007 126.829573,27.94 C126.505571,27.8039993 126.219574,27.6060013 125.971573,27.346 C125.723572,27.0859987 125.525574,26.7660019 125.377573,26.386 C125.229572,26.0059981 125.155573,25.5760024 125.155573,25.096 C125.155573,24.6079976 125.229572,24.1740019 125.377573,23.794 C125.525574,23.4139981 125.723572,23.0920013 125.971573,22.828 C126.219574,22.5639987 126.505571,22.3640007 126.829573,22.228 C127.153574,22.0919993 127.495571,22.024 127.855573,22.024 C128.215575,22.024 128.557571,22.0919993 128.881573,22.228 C129.205574,22.3640007 129.491572,22.5639987 129.739573,22.828 C129.987574,23.0920013 130.185572,23.4139981 130.333573,23.794 C130.481574,24.1740019 130.555573,24.6079976 130.555573,25.096 C130.555573,25.5760024 130.481574,26.0059981 130.333573,26.386 C130.185572,26.7660019 129.987574,27.0859987 129.739573,27.346 C129.491572,27.6060013 129.205574,27.8039993 128.881573,27.94 C128.557571,28.0760007 128.215575,28.144 127.855573,28.144 Z M127.855573,27.328 C128.103574,27.328 128.331572,27.2740005 128.539573,27.166 C128.747574,27.0579995 128.925572,26.906001 129.073573,26.71 C129.221574,26.513999 129.335572,26.2800014 129.415573,26.008 C129.495573,25.7359986 129.535573,25.4320017 129.535573,25.096 C129.535573,24.7599983 129.495573,24.4540014 129.415573,24.178 C129.335572,23.9019986 129.221574,23.664001 129.073573,23.464 C128.925572,23.263999 128.747574,23.1100005 128.539573,23.002 C128.331572,22.8939995 128.103574,22.84 127.855573,22.84 C127.607572,22.84 127.379574,22.8939995 127.171573,23.002 C126.963572,23.1100005 126.785574,23.263999 126.637573,23.464 C126.489572,23.664001 126.375573,23.9019986 126.295573,24.178 C126.215572,24.4540014 126.175573,24.7599983 126.175573,25.096 C126.175573,25.4320017 126.215572,25.7359986 126.295573,26.008 C126.375573,26.2800014 126.489572,26.513999 126.637573,26.71 C126.785574,26.906001 126.963572,27.0579995 127.171573,27.166 C127.379574,27.2740005 127.607572,27.328 127.855573,27.328 Z M132.091573,28 L132.091573,22.168 L132.907573,22.168 L132.991573,23.008 L133.027573,23.008 C133.307574,22.7279986 133.601571,22.4940009 133.909573,22.306 C134.217574,22.1179991 134.575571,22.024 134.983573,22.024 C135.599576,22.024 136.049571,22.2159981 136.333573,22.6 C136.617574,22.9840019 136.759573,23.5519962 136.759573,24.304 L136.759573,28 L135.775573,28 L135.775573,24.436 C135.775573,23.8839972 135.687574,23.4860012 135.511573,23.242 C135.335572,22.9979988 135.055575,22.876 134.671573,22.876 C134.367571,22.876 134.099574,22.9519992 133.867573,23.104 C133.635572,23.2560008 133.371574,23.4799985 133.075573,23.776 L133.075573,28 L132.091573,28 Z" id="Location" fill="#484847" fill-rule="nonzero"></path>
                <path d="M18.6075729,23.596 L18.2355729,24.796 L20.5995729,24.796 L20.2275729,23.596 C20.0835722,23.1559978 19.9475735,22.7180022 19.8195729,22.282 C19.6915722,21.8459978 19.5635735,21.4000023 19.4355729,20.944 L19.3875729,20.944 C19.2675723,21.4000023 19.1435735,21.8459978 19.0155729,22.282 C18.8875722,22.7180022 18.7515736,23.1559978 18.6075729,23.596 Z M16.2075729,28 L18.8715729,20.128 L19.9995729,20.128 L22.6635729,28 L21.5955729,28 L20.8515729,25.6 L17.9835729,25.6 L17.2275729,28 L16.2075729,28 Z M25.9875729,28.144 C25.603571,28.144 25.2435746,28.0760007 24.9075729,27.94 C24.5715712,27.8039993 24.2815741,27.6060013 24.0375729,27.346 C23.7935717,27.0859987 23.6015736,26.7660019 23.4615729,26.386 C23.3215722,26.0059981 23.2515729,25.5760024 23.2515729,25.096 C23.2515729,24.6079976 23.3275721,24.1740019 23.4795729,23.794 C23.6315736,23.4139981 23.8355716,23.0920013 24.0915729,22.828 C24.3475742,22.5639987 24.6455712,22.3640007 24.9855729,22.228 C25.3255746,22.0919993 25.683571,22.024 26.0595729,22.024 C26.4435748,22.024 26.7715715,22.0919993 27.0435729,22.228 C27.3155742,22.3640007 27.5555718,22.524 27.7635729,22.708 L27.2595729,23.356 C27.091572,23.2039992 26.9135738,23.0800005 26.7255729,22.984 C26.5375719,22.8879995 26.327574,22.84 26.0955729,22.84 C25.8315716,22.84 25.587574,22.8939995 25.3635729,23.002 C25.1395718,23.1100005 24.9475737,23.263999 24.7875729,23.464 C24.6275721,23.664001 24.5015733,23.9019986 24.4095729,24.178 C24.3175724,24.4540014 24.2715729,24.7599983 24.2715729,25.096 C24.2715729,25.4320017 24.3155724,25.7359986 24.4035729,26.008 C24.4915733,26.2800014 24.6135721,26.513999 24.7695729,26.71 C24.9255737,26.906001 25.1155718,27.0579995 25.3395729,27.166 C25.563574,27.2740005 25.8075716,27.328 26.0715729,27.328 C26.3435742,27.328 26.5935717,27.2700006 26.8215729,27.154 C27.049574,27.0379994 27.255572,26.9000008 27.4395729,26.74 L27.8715729,27.4 C27.6075716,27.6320012 27.3155745,27.8139993 26.9955729,27.946 C26.6755713,28.0780007 26.3395746,28.144 25.9875729,28.144 Z M31.2075729,28.144 C30.823571,28.144 30.4635746,28.0760007 30.1275729,27.94 C29.7915712,27.8039993 29.5015741,27.6060013 29.2575729,27.346 C29.0135717,27.0859987 28.8215736,26.7660019 28.6815729,26.386 C28.5415722,26.0059981 28.4715729,25.5760024 28.4715729,25.096 C28.4715729,24.6079976 28.5475721,24.1740019 28.6995729,23.794 C28.8515736,23.4139981 29.0555716,23.0920013 29.3115729,22.828 C29.5675742,22.5639987 29.8655712,22.3640007 30.2055729,22.228 C30.5455746,22.0919993 30.903571,22.024 31.2795729,22.024 C31.6635748,22.024 31.9915715,22.0919993 32.2635729,22.228 C32.5355742,22.3640007 32.7755718,22.524 32.9835729,22.708 L32.4795729,23.356 C32.311572,23.2039992 32.1335738,23.0800005 31.9455729,22.984 C31.7575719,22.8879995 31.547574,22.84 31.3155729,22.84 C31.0515716,22.84 30.807574,22.8939995 30.5835729,23.002 C30.3595718,23.1100005 30.1675737,23.263999 30.0075729,23.464 C29.8475721,23.664001 29.7215733,23.9019986 29.6295729,24.178 C29.5375724,24.4540014 29.4915729,24.7599983 29.4915729,25.096 C29.4915729,25.4320017 29.5355724,25.7359986 29.6235729,26.008 C29.7115733,26.2800014 29.8335721,26.513999 29.9895729,26.71 C30.1455737,26.906001 30.3355718,27.0579995 30.5595729,27.166 C30.783574,27.2740005 31.0275716,27.328 31.2915729,27.328 C31.5635742,27.328 31.8135717,27.2700006 32.0415729,27.154 C32.269574,27.0379994 32.475572,26.9000008 32.6595729,26.74 L33.0915729,27.4 C32.8275716,27.6320012 32.5355745,27.8139993 32.2155729,27.946 C31.8955713,28.0780007 31.5595746,28.144 31.2075729,28.144 Z M36.0795729,28.144 C35.4555698,28.144 35.0015743,27.9520019 34.7175729,27.568 C34.4335715,27.1839981 34.2915729,26.6160038 34.2915729,25.864 L34.2915729,22.168 L35.2875729,22.168 L35.2875729,25.732 C35.2875729,26.2840028 35.373572,26.6819988 35.5455729,26.926 C35.7175737,27.1700012 35.995571,27.292 36.3795729,27.292 C36.6835744,27.292 36.9515717,27.2140008 37.1835729,27.058 C37.415574,26.9019992 37.6715715,26.6520017 37.9515729,26.308 L37.9515729,22.168 L38.9355729,22.168 L38.9355729,28 L38.1195729,28 L38.0355729,27.088 L37.9995729,27.088 C37.7275715,27.4080016 37.4415744,27.663999 37.1415729,27.856 C36.8415714,28.048001 36.4875749,28.144 36.0795729,28.144 Z M40.9035729,28 L40.9035729,22.168 L41.7195729,22.168 L41.8035729,23.224 L41.8395729,23.224 C42.0395739,22.8559982 42.2815715,22.5640011 42.5655729,22.348 C42.8495743,22.1319989 43.1595712,22.024 43.4955729,22.024 C43.727574,22.024 43.935572,22.0639996 44.1195729,22.144 L43.9275729,23.008 C43.8315724,22.9759998 43.7435733,22.9520001 43.6635729,22.936 C43.5835725,22.9199999 43.4835735,22.912 43.3635729,22.912 C43.1155716,22.912 42.8575742,23.011999 42.5895729,23.212 C42.3215715,23.412001 42.0875739,23.7599975 41.8875729,24.256 L41.8875729,28 L40.9035729,28 Z M46.1235729,28.144 C45.6355704,28.144 45.2295745,28.0000014 44.9055729,27.712 C44.5815713,27.4239986 44.4195729,27.0160026 44.4195729,26.488 C44.4195729,25.8479968 44.70357,25.3580017 45.2715729,25.018 C45.8395757,24.6779983 46.7475666,24.4400007 47.9955729,24.304 C47.9955729,24.1199991 47.9775731,23.9400009 47.9415729,23.764 C47.9055727,23.5879991 47.8435733,23.4320007 47.7555729,23.296 C47.6675724,23.1599993 47.5455737,23.0500004 47.3895729,22.966 C47.2335721,22.8819996 47.0355741,22.84 46.7955729,22.84 C46.4595712,22.84 46.1435744,22.9039994 45.8475729,23.032 C45.5515714,23.1600006 45.287574,23.3039992 45.0555729,23.464 L44.6715729,22.78 C44.9435742,22.6039991 45.2755709,22.4340008 45.6675729,22.27 C46.0595748,22.1059992 46.4915705,22.024 46.9635729,22.024 C47.6755764,22.024 48.1915713,22.2419978 48.5115729,22.678 C48.8315745,23.1140022 48.9915729,23.6959964 48.9915729,24.424 L48.9915729,28 L48.1755729,28 L48.0915729,27.304 L48.0555729,27.304 C47.7755715,27.5360012 47.4755745,27.7339992 47.1555729,27.898 C46.8355713,28.0620008 46.4915747,28.144 46.1235729,28.144 Z M46.4115729,27.352 C46.6915743,27.352 46.9555716,27.2860007 47.2035729,27.154 C47.4515741,27.0219993 47.7155715,26.8280013 47.9955729,26.572 L47.9955729,24.952 C47.5075704,25.0160003 47.0975745,25.0919996 46.7655729,25.18 C46.4335712,25.2680004 46.1655739,25.3719994 45.9615729,25.492 C45.7575719,25.6120006 45.6095733,25.7499992 45.5175729,25.906 C45.4255724,26.0620008 45.3795729,26.2319991 45.3795729,26.416 C45.3795729,26.7520017 45.4795719,26.9919993 45.6795729,27.136 C45.8795729,27.2800007 46.1235714,27.352 46.4115729,27.352 Z M53.1315729,28.144 C52.747571,28.144 52.3875746,28.0760007 52.0515729,27.94 C51.7155712,27.8039993 51.4255741,27.6060013 51.1815729,27.346 C50.9375717,27.0859987 50.7455736,26.7660019 50.6055729,26.386 C50.4655722,26.0059981 50.3955729,25.5760024 50.3955729,25.096 C50.3955729,24.6079976 50.4715721,24.1740019 50.6235729,23.794 C50.7755736,23.4139981 50.9795716,23.0920013 51.2355729,22.828 C51.4915742,22.5639987 51.7895712,22.3640007 52.1295729,22.228 C52.4695746,22.0919993 52.827571,22.024 53.2035729,22.024 C53.5875748,22.024 53.9155715,22.0919993 54.1875729,22.228 C54.4595742,22.3640007 54.6995718,22.524 54.9075729,22.708 L54.4035729,23.356 C54.235572,23.2039992 54.0575738,23.0800005 53.8695729,22.984 C53.6815719,22.8879995 53.471574,22.84 53.2395729,22.84 C52.9755716,22.84 52.731574,22.8939995 52.5075729,23.002 C52.2835718,23.1100005 52.0915737,23.263999 51.9315729,23.464 C51.7715721,23.664001 51.6455733,23.9019986 51.5535729,24.178 C51.4615724,24.4540014 51.4155729,24.7599983 51.4155729,25.096 C51.4155729,25.4320017 51.4595724,25.7359986 51.5475729,26.008 C51.6355733,26.2800014 51.7575721,26.513999 51.9135729,26.71 C52.0695737,26.906001 52.2595718,27.0579995 52.4835729,27.166 C52.707574,27.2740005 52.9515716,27.328 53.2155729,27.328 C53.4875742,27.328 53.7375717,27.2700006 53.9655729,27.154 C54.193574,27.0379994 54.399572,26.9000008 54.5835729,26.74 L55.0155729,27.4 C54.7515716,27.6320012 54.4595745,27.8139993 54.1395729,27.946 C53.8195713,28.0780007 53.4835746,28.144 53.1315729,28.144 Z M56.4675729,30.508 C56.3315722,30.508 56.2075734,30.4980001 56.0955729,30.478 C55.9835723,30.4579999 55.8795734,30.4280002 55.7835729,30.388 L55.9755729,29.608 L56.1915729,29.662 C56.2715733,29.6820001 56.3475725,29.692 56.4195729,29.692 C56.7555746,29.692 57.0295718,29.5740012 57.2415729,29.338 C57.4535739,29.1019988 57.6195723,28.8040018 57.7395729,28.444 L57.8715729,28.012 L55.5315729,22.168 L56.5515729,22.168 L57.7395729,25.396 L57.9235728,25.9266663 C57.9555727,26.0182217 57.9882394,26.1113329 58.0215729,26.206 C58.1215734,26.4900014 58.2155724,26.7679986 58.3035729,27.04 L58.3515729,27.04 C58.4102398,26.8639991 58.4671284,26.6826667 58.5222395,26.4960003 L58.7635728,25.6573336 C58.7902394,25.5684449 58.8169061,25.4813338 58.8435729,25.396 L59.8875729,22.168 L60.8475729,22.168 L58.6515729,28.48 C58.5475724,28.7680014 58.4315735,29.0359988 58.3035729,29.284 C58.1755722,29.5320012 58.0235738,29.7459991 57.8475729,29.926 C57.671572,30.1060009 57.471574,30.2479995 57.2475729,30.352 C57.0235718,30.4560005 56.7635744,30.508 56.4675729,30.508 Z" id="Accuracy" fill="#484847" fill-rule="nonzero"></path>
                <path d="M27.8515729,35.6 C28.2995751,35.6 28.7102377,35.6586661 29.0835729,35.776 C29.4569081,35.8933339 29.7795715,36.0613322 30.0515729,36.28 C30.3235742,36.4986678 30.5342388,36.7679984 30.6835729,37.088 C30.832907,37.4080016 30.9075729,37.7759979 30.9075729,38.192 C30.9075729,38.8106698 30.7369079,39.3173314 30.3955729,39.712 C30.0542378,40.1066686 29.6062423,40.4106656 29.0515729,40.624 L29.0515729,40.688 C29.3609078,40.762667 29.6489049,40.8719993 29.9155729,41.016 C30.1822409,41.1600007 30.4169052,41.3413322 30.6195729,41.56 C30.8222406,41.7786678 30.9795723,42.0319986 31.0915729,42.32 C31.2035734,42.6080014 31.2595729,42.9279982 31.2595729,43.28 C31.2595729,43.7280022 31.1715738,44.1333315 30.9955729,44.496 C30.819572,44.8586685 30.5795744,45.1653321 30.2755729,45.416 C29.9715714,45.6666679 29.6169082,45.858666 29.2115729,45.992 C28.8062375,46.125334 28.3689086,46.192 27.8995729,46.192 C27.4942375,46.192 27.1235746,46.1520004 26.7875729,46.072 C26.4515712,45.9919996 26.1449076,45.885334 25.8675729,45.752 C25.5902382,45.618666 25.3422406,45.4666675 25.1235729,45.296 C24.9049051,45.1253325 24.7102404,44.944001 24.5395729,44.752 L25.2115729,43.888 C25.5209078,44.2080016 25.8809042,44.4906654 26.2915729,44.736 C26.7022416,44.9813346 27.2115698,45.104 27.8195729,45.104 C28.4382426,45.104 28.9449042,44.9360017 29.3395729,44.6 C29.7342415,44.2639983 29.9315729,43.8080029 29.9315729,43.232 C29.9315729,42.9333318 29.8755734,42.6586679 29.7635729,42.408 C29.6515723,42.1573321 29.4675742,41.9413342 29.2115729,41.76 C28.9555716,41.5786658 28.619575,41.4400005 28.2035729,41.344 C27.7875708,41.2479995 27.2755759,41.2 26.6675729,41.2 L26.6675729,40.192 C27.2115756,40.192 27.667571,40.1440005 28.0355729,40.048 C28.4035747,39.9519995 28.7022384,39.8186675 28.9315729,39.648 C29.1609074,39.4773325 29.3235724,39.2746678 29.4195729,39.04 C29.5155734,38.8053322 29.5635729,38.554668 29.5635729,38.288 C29.5635729,37.7866642 29.4062411,37.3920014 29.0915729,37.104 C28.7769046,36.8159986 28.3475756,36.672 27.8035729,36.672 C27.3769041,36.672 26.984908,36.767999 26.6275729,36.96 C26.2702378,37.152001 25.9369078,37.4026651 25.6275729,37.712 L24.9235729,36.88 C25.3182415,36.5066648 25.7529038,36.2000012 26.2275729,35.96 C26.7022419,35.7199988 27.2435698,35.6 27.8515729,35.6 Z M41.9955729,35.312 L36.2035729,46.192 L35.3075729,46.192 L41.0995729,35.312 L41.9955729,35.312 Z M42.3315729,39.568 C43.0462431,39.568 43.6222374,39.8533305 44.0595729,40.424 C44.4969084,40.9946695 44.7155729,41.8079947 44.7155729,42.864 C44.7155729,43.930672 44.4969084,44.7519971 44.0595729,45.328 C43.6222374,45.9040029 43.0462431,46.192 42.3315729,46.192 C41.6062359,46.192 41.027575,45.9040029 40.5955729,45.328 C40.1635707,44.7519971 39.9475729,43.930672 39.9475729,42.864 C39.9475729,41.8079947 40.1635707,40.9946695 40.5955729,40.424 C41.027575,39.8533305 41.6062359,39.568 42.3315729,39.568 Z M23.4515729,35.792 L23.4515729,36.608 C22.8435698,37.3760038 22.3502414,38.1119965 21.9715729,38.816 C21.5929043,39.5200035 21.291574,40.2373297 21.0675729,40.968 C20.8435718,41.6986703 20.6809067,42.4719959 20.5795729,43.288 C20.478239,44.1040041 20.4062398,45.007995 20.3635729,46 L19.0035729,46 C19.0462398,45.0399952 19.1315722,44.160004 19.2595729,43.36 C19.3875735,42.559996 19.5662384,41.8000036 19.7955729,41.08 C20.0249074,40.3599964 20.3182378,39.6640034 20.6755729,38.992 C21.032908,38.3199966 21.462237,37.6320035 21.9635729,36.928 L16.8755729,36.928 L16.8755729,35.792 L23.4515729,35.792 Z M42.3315729,40.384 C41.9155708,40.384 41.5795742,40.5893313 41.3235729,41 C41.0675716,41.4106687 40.9395729,42.0319958 40.9395729,42.864 C40.9395729,43.6960042 41.0675716,44.3226646 41.3235729,44.744 C41.5795742,45.1653354 41.9155708,45.376 42.3315729,45.376 C42.7369082,45.376 43.0675716,45.1653354 43.3235729,44.744 C43.5795742,44.3226646 43.7075729,43.6960042 43.7075729,42.864 C43.7075729,42.0319958 43.5795742,41.4106687 43.3235729,41 C43.0675716,40.5893313 42.7369082,40.384 42.3315729,40.384 Z M35.0195729,35.312 C35.7342431,35.312 36.3102374,35.5973305 36.7475729,36.168 C37.1849084,36.7386695 37.4035729,37.5519947 37.4035729,38.608 C37.4035729,39.674672 37.1849084,40.4959971 36.7475729,41.072 C36.3102374,41.6480029 35.7342431,41.936 35.0195729,41.936 C34.2942359,41.936 33.715575,41.6480029 33.2835729,41.072 C32.8515707,40.4959971 32.6355729,39.674672 32.6355729,38.608 C32.6355729,37.5519947 32.8515707,36.7386695 33.2835729,36.168 C33.715575,35.5973305 34.2942359,35.312 35.0195729,35.312 Z M35.0195729,36.128 C34.6035708,36.128 34.2675742,36.3333313 34.0115729,36.744 C33.7555716,37.1546687 33.6275729,37.7759958 33.6275729,38.608 C33.6275729,39.4400042 33.7555716,40.0666646 34.0115729,40.488 C34.2675742,40.9093354 34.6035708,41.12 35.0195729,41.12 C35.4249082,41.12 35.7555716,40.9093354 36.0115729,40.488 C36.2675742,40.0666646 36.3955729,39.4400042 36.3955729,38.608 C36.3955729,37.7759958 36.2675742,37.1546687 36.0115729,36.744 C35.7555716,36.3333313 35.4249082,36.128 35.0195729,36.128 Z" id="Combined-Shape" fill="#333333" fill-rule="nonzero"></path>
            </g>
        </g>
    </g>
</svg>