<?xml version="1.0" encoding="UTF-8"?>
<svg width="21px" height="24px" viewBox="0 0 21 24" version="1.1" xmlns="http://www.w3.org/2000/svg" xmlns:xlink="http://www.w3.org/1999/xlink">
    <!-- Generator: Sketch 59.1 (86144) - https://sketch.com -->
    <title>white_ship</title>
    <desc>Created with Sketch.</desc>
    <g id="Page-1" stroke="none" stroke-width="1" fill="none" fill-rule="evenodd">
        <g id="Artboard" transform="translate(-87.000000, -229.000000)">
            <g id="white_ship" transform="translate(86.000000, 228.000000)">
                <rect id="Rectangle-Copy-3" x="0" y="0" width="23" height="26"></rect>
                <path d="M19.131829,10.2715789 L19.131829,2.89473684 L16.1389549,2.89473684 L16.1389549,1.80842105 C16.1389549,1.35368421 15.7648456,1 15.3408551,1 L7.65914489,1 C7.21021378,1 6.86104513,1.37894737 6.86104513,1.80842105 L6.86104513,2.89473684 L3.86817102,2.89473684 L3.86817102,10.2715789 L1,11.2568421 C1,11.2568421 4.39192399,19.4673684 4.39192399,24.4694737 C4.39192399,24.4694737 10.327791,25 11.5,25 C12.672209,25 18.608076,24.4694737 18.608076,24.4694737 C18.608076,19.5684211 22,11.2568421 22,11.2568421 L19.131829,10.2715789 Z M5.46437055,4.51157895 L17.5855107,4.51157895 L17.5855107,9.71578947 L11.5498812,7.64421053 L5.48931116,9.71578947 L5.48931116,4.51157895 L5.46437055,4.51157895 Z" id="Shape" fill="#FFFFFF" fill-rule="nonzero"></path>
            </g>
        </g>
    </g>
</svg>